<svg xmlns="http://www.w3.org/2000/svg" xmlns:xlink="http://www.w3.org/1999/xlink" width="377" zoomAndPan="magnify" viewBox="0 0 282.96 283.499996" height="377" preserveAspectRatio="xMidYMid meet" version="1.0"><defs><clipPath id="faa4224285"><path d="M 0.230469 6.273438 L 282.691406 6.273438 L 282.691406 278 L 0.230469 278 Z M 0.230469 6.273438 " clip-rule="nonzero"/></clipPath></defs><path fill="#00bf63" d="M 141.59375 99.832031 C 125.984375 99.832031 113.28125 112.535156 113.28125 128.144531 C 113.28125 143.757812 125.984375 156.460938 141.59375 156.460938 C 157.203125 156.460938 169.90625 143.757812 169.90625 128.144531 C 169.90625 112.535156 157.203125 99.832031 141.59375 99.832031 Z M 141.59375 151.976562 C 128.457031 151.976562 117.765625 141.285156 117.765625 128.144531 C 117.765625 115.007812 128.457031 104.316406 141.59375 104.316406 C 154.730469 104.316406 165.421875 115.007812 165.421875 128.144531 C 165.421875 141.285156 154.730469 151.976562 141.59375 151.976562 Z M 141.59375 151.976562 " fill-opacity="1" fill-rule="nonzero"/><path fill="#00bf63" d="M 141.59375 107.648438 C 140.355469 107.648438 139.351562 108.652344 139.351562 109.890625 L 139.351562 127.164062 L 131.964844 134.007812 C 131.054688 134.847656 131 136.265625 131.84375 137.171875 C 132.28125 137.652344 132.882812 137.890625 133.484375 137.890625 C 134.03125 137.890625 134.578125 137.691406 135.007812 137.292969 L 143.117188 129.785156 C 143.574219 129.363281 143.832031 128.765625 143.832031 128.144531 L 143.832031 109.886719 C 143.835938 108.652344 142.832031 107.648438 141.59375 107.648438 Z M 141.59375 107.648438 " fill-opacity="1" fill-rule="nonzero"/><path fill="#00bf63" d="M 45.78125 221.582031 L 25.613281 221.582031 C 24.375 221.582031 23.371094 222.582031 23.371094 223.824219 L 23.371094 255.253906 C 23.371094 256.492188 24.375 257.492188 25.613281 257.492188 L 45.78125 257.492188 C 47.019531 257.492188 48.023438 256.492188 48.023438 255.253906 L 48.023438 223.824219 C 48.023438 222.585938 47.019531 221.582031 45.78125 221.582031 Z M 43.539062 226.0625 L 43.539062 231.199219 L 27.855469 231.199219 L 27.855469 226.0625 Z M 27.855469 253.011719 L 27.855469 235.683594 L 43.539062 235.683594 L 43.539062 253.011719 Z M 27.855469 253.011719 " fill-opacity="1" fill-rule="nonzero"/><path fill="#00bf63" d="M 74.363281 221.582031 L 54.195312 221.582031 C 52.957031 221.582031 51.953125 222.582031 51.953125 223.824219 L 51.953125 255.253906 C 51.953125 256.492188 52.957031 257.492188 54.195312 257.492188 L 74.363281 257.492188 C 75.605469 257.492188 76.605469 256.492188 76.605469 255.253906 L 76.605469 223.824219 C 76.605469 222.585938 75.601562 221.582031 74.363281 221.582031 Z M 72.125 226.0625 L 72.125 231.199219 L 56.4375 231.199219 L 56.4375 226.0625 Z M 56.4375 253.011719 L 56.4375 235.683594 L 72.125 235.683594 L 72.125 253.011719 Z M 56.4375 253.011719 " fill-opacity="1" fill-rule="nonzero"/><path fill="#00bf63" d="M 65.953125 138.496094 L 45.78125 138.496094 C 44.542969 138.496094 43.539062 139.496094 43.539062 140.738281 L 43.539062 172.171875 C 43.539062 173.410156 44.542969 174.410156 45.78125 174.410156 L 65.953125 174.410156 C 67.191406 174.410156 68.191406 173.410156 68.191406 172.171875 L 68.191406 140.738281 C 68.191406 139.496094 67.1875 138.496094 65.953125 138.496094 Z M 63.710938 142.976562 L 63.710938 148.113281 L 48.023438 148.113281 L 48.023438 142.976562 Z M 48.023438 169.929688 L 48.023438 152.597656 L 63.710938 152.597656 L 63.710938 169.929688 Z M 48.023438 169.929688 " fill-opacity="1" fill-rule="nonzero"/><g clip-path="url(#faa4224285)"><path fill="#00bf63" d="M 282.472656 124.609375 L 251.851562 73.789062 C 251.445312 73.117188 250.71875 72.707031 249.933594 72.707031 L 159.554688 72.707031 L 143.835938 53.941406 L 143.835938 40.496094 C 149.847656 41.183594 154.3125 44.527344 158.632812 47.792969 C 162.226562 50.507812 165.625 53.070312 169.613281 53.761719 C 171.089844 54.015625 172.550781 54.125 173.960938 54.125 C 181.171875 54.121094 187.101562 51.324219 187.398438 51.183594 C 188.175781 50.808594 188.667969 50.023438 188.667969 49.164062 L 188.667969 19.570312 C 188.667969 18.796875 188.273438 18.082031 187.621094 17.671875 C 186.96875 17.261719 186.152344 17.210938 185.457031 17.546875 C 185.382812 17.585938 177.996094 21.074219 170.375 19.75 C 167.457031 19.242188 164.621094 17.101562 161.335938 14.621094 C 156.15625 10.707031 150.285156 6.273438 141.59375 6.273438 C 140.355469 6.273438 139.351562 7.273438 139.351562 8.511719 L 139.351562 53.941406 L 123.636719 72.707031 L 33.253906 72.707031 C 32.46875 72.707031 31.742188 73.117188 31.335938 73.789062 L 0.714844 124.609375 C 0.296875 125.296875 0.285156 126.160156 0.679688 126.863281 C 1.074219 127.566406 1.820312 128.003906 2.625 128.007812 C 2.625 128.007812 13.972656 128.046875 28.089844 128.085938 L 28.089844 183.082031 L 17.742188 183.082031 C 16.503906 183.082031 15.5 184.082031 15.5 185.324219 L 15.5 269.832031 C 15.5 271.070312 16.503906 272.074219 17.742188 272.074219 L 79.871094 272.074219 L 79.871094 275.640625 C 79.871094 276.878906 80.871094 277.878906 82.109375 277.878906 L 201.078125 277.878906 C 202.316406 277.878906 203.320312 276.878906 203.320312 275.640625 L 203.320312 272.074219 L 265.445312 272.074219 C 266.6875 272.074219 267.6875 271.070312 267.6875 269.832031 L 267.6875 185.320312 C 267.6875 184.082031 266.6875 183.078125 265.445312 183.078125 L 255.09375 183.078125 L 255.09375 128.082031 C 269.210938 128.046875 280.5625 128.003906 280.5625 128.003906 C 281.367188 128 282.109375 127.566406 282.503906 126.859375 C 282.902344 126.160156 282.886719 125.296875 282.472656 124.609375 Z M 169.613281 24.167969 C 175.355469 25.164062 180.863281 23.910156 184.1875 22.828125 L 184.1875 47.667969 C 181.746094 48.597656 176.132812 50.339844 170.375 49.34375 C 167.457031 48.839844 164.621094 46.695312 161.335938 44.214844 C 156.617188 40.652344 151.304688 36.695312 143.835938 36.007812 L 143.835938 10.898438 C 149.847656 11.589844 154.3125 14.933594 158.632812 18.199219 C 162.226562 20.914062 165.621094 23.480469 169.613281 24.167969 Z M 34.523438 77.1875 L 119.878906 77.1875 L 81.015625 123.578125 C 76.308594 123.679688 53.511719 123.664062 30.335938 123.605469 C 30.335938 123.605469 30.335938 123.605469 30.332031 123.605469 C 30.332031 123.605469 30.332031 123.605469 30.328125 123.605469 C 22.203125 123.585938 14.035156 123.5625 6.589844 123.535156 Z M 32.578125 128.09375 C 35.777344 128.101562 39.0625 128.109375 42.355469 128.113281 C 49.152344 128.128906 55.945312 128.136719 61.945312 128.136719 C 64.722656 128.136719 67.324219 128.132812 69.683594 128.128906 C 74.542969 128.121094 77.730469 128.113281 79.867188 128.03125 L 79.867188 183.078125 L 32.578125 183.078125 Z M 79.871094 187.5625 L 79.871094 206.320312 L 19.984375 206.320312 L 19.984375 187.5625 Z M 19.984375 267.589844 L 19.984375 210.800781 L 79.871094 210.800781 L 79.871094 267.589844 Z M 168.5 200.277344 L 114.6875 200.277344 L 114.6875 181.511719 L 168.5 181.511719 Z M 114.6875 204.757812 L 139.371094 204.757812 L 139.371094 273.394531 L 114.6875 273.394531 Z M 143.855469 273.394531 L 143.855469 204.757812 L 168.5 204.757812 L 168.5 273.394531 Z M 198.835938 273.394531 L 172.984375 273.394531 L 172.984375 179.269531 C 172.984375 178.027344 171.980469 177.027344 170.742188 177.027344 L 112.445312 177.027344 C 111.207031 177.027344 110.207031 178.027344 110.207031 179.269531 L 110.207031 273.394531 L 84.351562 273.394531 L 84.351562 126.578125 L 141.59375 58.246094 L 198.835938 126.578125 Z M 203.320312 267.589844 L 203.320312 210.800781 L 263.207031 210.800781 L 263.207031 267.589844 Z M 263.207031 206.320312 L 203.320312 206.320312 L 203.320312 187.5625 L 263.207031 187.5625 Z M 250.609375 183.078125 L 203.320312 183.078125 L 203.320312 128.03125 C 205.457031 128.113281 208.644531 128.121094 213.5 128.128906 C 215.859375 128.132812 218.464844 128.136719 221.238281 128.136719 C 227.242188 128.136719 234.039062 128.128906 240.832031 128.113281 C 244.125 128.105469 247.410156 128.101562 250.609375 128.09375 Z M 252.855469 123.605469 C 252.851562 123.605469 252.851562 123.605469 252.851562 123.605469 C 252.847656 123.605469 252.847656 123.605469 252.847656 123.605469 C 229.671875 123.664062 206.875 123.683594 202.171875 123.578125 L 163.308594 77.1875 L 248.664062 77.1875 L 276.59375 123.539062 C 269.148438 123.5625 260.980469 123.585938 252.855469 123.605469 Z M 252.855469 123.605469 " fill-opacity="1" fill-rule="nonzero"/></g><path fill="#00bf63" d="M 257.574219 221.582031 L 237.40625 221.582031 C 236.167969 221.582031 235.164062 222.582031 235.164062 223.824219 L 235.164062 255.253906 C 235.164062 256.492188 236.167969 257.492188 237.40625 257.492188 L 257.574219 257.492188 C 258.816406 257.492188 259.816406 256.492188 259.816406 255.253906 L 259.816406 223.824219 C 259.816406 222.585938 258.816406 221.582031 257.574219 221.582031 Z M 255.335938 226.0625 L 255.335938 231.199219 L 239.648438 231.199219 L 239.648438 226.0625 Z M 239.648438 253.011719 L 239.648438 235.683594 L 255.335938 235.683594 L 255.335938 253.011719 Z M 239.648438 253.011719 " fill-opacity="1" fill-rule="nonzero"/><path fill="#00bf63" d="M 228.992188 221.582031 L 208.824219 221.582031 C 207.582031 221.582031 206.582031 222.582031 206.582031 223.824219 L 206.582031 255.253906 C 206.582031 256.492188 207.582031 257.492188 208.824219 257.492188 L 228.992188 257.492188 C 230.230469 257.492188 231.234375 256.492188 231.234375 255.253906 L 231.234375 223.824219 C 231.234375 222.585938 230.230469 221.582031 228.992188 221.582031 Z M 226.75 226.0625 L 226.75 231.199219 L 211.066406 231.199219 L 211.066406 226.0625 Z M 211.066406 253.011719 L 211.066406 235.683594 L 226.75 235.683594 L 226.75 253.011719 Z M 211.066406 253.011719 " fill-opacity="1" fill-rule="nonzero"/><path fill="#00bf63" d="M 237.40625 138.496094 L 217.238281 138.496094 C 215.996094 138.496094 214.996094 139.496094 214.996094 140.738281 L 214.996094 172.171875 C 214.996094 173.410156 215.996094 174.410156 217.238281 174.410156 L 237.40625 174.410156 C 238.644531 174.410156 239.648438 173.410156 239.648438 172.171875 L 239.648438 140.738281 C 239.648438 139.496094 238.644531 138.496094 237.40625 138.496094 Z M 235.164062 142.976562 L 235.164062 148.113281 L 219.476562 148.113281 L 219.476562 142.976562 Z M 219.476562 169.929688 L 219.476562 152.597656 L 235.164062 152.597656 L 235.164062 169.929688 Z M 219.476562 169.929688 " fill-opacity="1" fill-rule="nonzero"/></svg>