<svg xmlns="http://www.w3.org/2000/svg" xmlns:xlink="http://www.w3.org/1999/xlink" width="377" zoomAndPan="magnify" viewBox="0 0 283.5 283.500005" height="377" preserveAspectRatio="xMidYMid meet" version="1.0"><defs><clipPath id="d2ed86007e"><path d="M 3.292969 0 L 279.554688 0 L 279.554688 276.261719 L 3.292969 276.261719 Z M 3.292969 0 " clip-rule="nonzero"/></clipPath></defs><path fill="#00bf63" d="M 141.476562 196.132812 C 156.226562 196.132812 168.222656 184.136719 168.222656 169.386719 C 168.222656 154.636719 156.226562 142.640625 141.476562 142.640625 C 126.726562 142.640625 114.730469 154.636719 114.730469 169.386719 C 114.730469 184.136719 126.726562 196.132812 141.476562 196.132812 Z M 141.476562 151.558594 C 151.308594 151.558594 159.308594 159.554688 159.308594 169.386719 C 159.308594 179.21875 151.308594 187.21875 141.476562 187.21875 C 131.644531 187.21875 123.648438 179.21875 123.648438 169.386719 C 123.648438 159.554688 131.644531 151.558594 141.476562 151.558594 Z M 141.476562 151.558594 " fill-opacity="1" fill-rule="nonzero"/><path fill="#00bf63" d="M 150.390625 173.84375 L 150.390625 164.929688 L 143.324219 164.929688 L 135.714844 157.320312 L 129.410156 163.625 L 139.632812 173.84375 Z M 150.390625 173.84375 " fill-opacity="1" fill-rule="nonzero"/><g clip-path="url(#d2ed86007e)"><path fill="#00bf63" d="M 270.746094 205.046875 L 270.746094 32.253906 L 278.429688 16.890625 C 279.234375 15.277344 279.660156 13.472656 279.660156 11.667969 C 279.660156 5.234375 274.421875 0 267.992188 0 L 193.265625 0 C 186.832031 0 181.59375 5.234375 181.59375 11.667969 C 181.59375 13.472656 182.023438 15.277344 182.824219 16.890625 L 190.511719 32.253906 L 190.511719 53.492188 L 92.445312 53.492188 L 92.445312 32.253906 L 100.128906 16.890625 C 100.929688 15.277344 101.359375 13.472656 101.359375 11.667969 C 101.359375 5.234375 96.121094 0 89.6875 0 L 14.964844 0 C 8.53125 0 3.292969 5.234375 3.292969 11.667969 C 3.292969 13.472656 3.722656 15.277344 4.523438 16.890625 L 12.207031 32.253906 L 12.207031 205.046875 C 7.292969 205.046875 3.292969 209.046875 3.292969 213.960938 L 3.292969 276.367188 L 279.660156 276.367188 L 279.660156 213.960938 C 279.660156 209.046875 275.664062 205.046875 270.746094 205.046875 Z M 181.59375 267.453125 L 172.679688 267.453125 L 172.679688 227.335938 C 172.679688 224.875 174.675781 222.878906 177.136719 222.878906 C 179.597656 222.878906 181.59375 224.875 181.59375 227.335938 Z M 177.136719 213.960938 C 169.765625 213.960938 163.765625 219.960938 163.765625 227.335938 L 163.765625 267.453125 L 154.851562 267.453125 L 154.851562 227.335938 C 154.851562 219.960938 148.851562 213.960938 141.476562 213.960938 C 134.105469 213.960938 128.105469 219.960938 128.105469 227.335938 L 128.105469 267.453125 L 119.1875 267.453125 L 119.1875 227.335938 C 119.1875 219.960938 113.191406 213.960938 105.816406 213.960938 C 98.445312 213.960938 92.445312 219.960938 92.445312 227.335938 L 92.445312 267.453125 L 83.527344 267.453125 L 83.527344 209.503906 L 199.425781 209.503906 L 199.425781 267.453125 L 190.511719 267.453125 L 190.511719 227.335938 C 190.511719 219.960938 184.511719 213.960938 177.136719 213.960938 Z M 145.933594 267.453125 L 137.019531 267.453125 L 137.019531 227.335938 C 137.019531 224.875 139.015625 222.878906 141.476562 222.878906 C 143.9375 222.878906 145.933594 224.875 145.933594 227.335938 Z M 110.273438 267.453125 L 101.359375 267.453125 L 101.359375 227.335938 C 101.359375 224.875 103.355469 222.878906 105.816406 222.878906 C 108.277344 222.878906 110.273438 224.875 110.273438 227.335938 Z M 21.125 35.660156 L 83.527344 35.660156 L 83.527344 124.8125 L 21.125 124.8125 Z M 261.832031 35.660156 L 261.832031 124.8125 L 199.425781 124.8125 L 199.425781 35.660156 Z M 149.089844 102.523438 L 190.511719 102.523438 L 190.511719 132.4375 Z M 190.511719 93.609375 L 181.59375 93.609375 L 181.59375 80.234375 L 190.511719 80.234375 Z M 172.679688 93.609375 L 163.765625 93.609375 L 163.765625 80.234375 L 172.679688 80.234375 Z M 154.851562 93.609375 L 145.933594 93.609375 L 145.933594 80.234375 L 154.851562 80.234375 Z M 137.019531 93.609375 L 128.105469 93.609375 L 128.105469 80.234375 L 137.019531 80.234375 Z M 119.1875 93.609375 L 110.273438 93.609375 L 110.273438 80.234375 L 119.1875 80.234375 Z M 101.359375 93.609375 L 92.445312 93.609375 L 92.445312 80.234375 L 101.359375 80.234375 Z M 92.445312 102.523438 L 133.863281 102.523438 L 92.445312 132.4375 Z M 141.476562 108.019531 L 215.433594 161.429688 C 216.574219 162.253906 217.253906 163.585938 217.253906 164.996094 C 217.253906 167.417969 215.285156 169.386719 212.863281 169.386719 L 211.238281 169.386719 C 210.296875 169.386719 209.402344 169.09375 208.644531 168.535156 L 141.476562 119.285156 L 74.316406 168.535156 C 73.558594 169.09375 72.660156 169.386719 71.722656 169.386719 L 70.09375 169.386719 C 67.667969 169.386719 65.699219 167.417969 65.699219 164.996094 C 65.699219 163.59375 66.378906 162.257812 67.523438 161.433594 Z M 141.476562 130.339844 L 199.425781 172.835938 L 199.425781 200.589844 L 83.527344 200.589844 L 83.527344 172.835938 Z M 208.339844 213.960938 L 270.746094 213.960938 L 270.746094 222.878906 L 208.339844 222.878906 Z M 208.339844 205.046875 L 208.339844 177.945312 C 209.285156 178.15625 210.25 178.300781 211.234375 178.300781 L 212.859375 178.300781 C 220.203125 178.300781 226.171875 172.332031 226.171875 164.996094 C 226.171875 160.738281 224.105469 156.707031 220.65625 154.207031 L 199.425781 138.875 L 199.425781 133.726562 L 261.832031 133.726562 L 261.832031 205.046875 Z M 193.265625 8.914062 L 267.992188 8.914062 C 269.511719 8.914062 270.746094 10.148438 270.746094 11.667969 C 270.746094 12.09375 270.648438 12.519531 270.457031 12.898438 L 263.535156 26.746094 L 197.722656 26.746094 L 190.800781 12.90625 C 190.609375 12.519531 190.511719 12.09375 190.511719 11.667969 C 190.511719 10.148438 191.746094 8.914062 193.265625 8.914062 Z M 190.511719 62.40625 L 190.511719 71.320312 L 92.445312 71.320312 L 92.445312 62.40625 Z M 14.964844 8.914062 L 89.6875 8.914062 C 91.210938 8.914062 92.445312 10.148438 92.445312 11.667969 C 92.445312 12.09375 92.347656 12.519531 92.152344 12.898438 L 85.230469 26.746094 L 19.421875 26.746094 L 12.496094 12.90625 C 12.304688 12.519531 12.207031 12.09375 12.207031 11.667969 C 12.207031 10.148438 13.441406 8.914062 14.964844 8.914062 Z M 21.125 133.726562 L 83.527344 133.726562 L 83.527344 138.875 L 62.296875 154.207031 C 58.847656 156.699219 56.785156 160.738281 56.785156 164.996094 C 56.785156 172.332031 62.753906 178.300781 70.089844 178.300781 L 71.714844 178.300781 C 72.707031 178.300781 73.664062 178.15625 74.609375 177.945312 L 74.609375 205.046875 L 21.125 205.046875 Z M 74.613281 213.960938 L 74.613281 222.878906 L 12.207031 222.878906 L 12.207031 213.960938 Z M 12.207031 231.792969 L 74.613281 231.792969 L 74.613281 267.453125 L 70.15625 267.453125 L 70.15625 251.851562 C 70.15625 245.703125 65.160156 240.707031 59.011719 240.707031 C 52.867188 240.707031 47.867188 245.703125 47.867188 251.851562 L 47.867188 267.453125 L 38.953125 267.453125 L 38.953125 251.851562 C 38.953125 245.703125 33.957031 240.707031 27.808594 240.707031 C 21.664062 240.707031 16.664062 245.703125 16.664062 251.851562 L 16.664062 267.453125 L 12.207031 267.453125 Z M 61.242188 267.453125 L 56.785156 267.453125 L 56.785156 251.851562 C 56.785156 250.625 57.785156 249.621094 59.011719 249.621094 C 60.238281 249.621094 61.242188 250.625 61.242188 251.851562 Z M 30.039062 267.453125 L 25.582031 267.453125 L 25.582031 251.851562 C 25.582031 250.625 26.582031 249.621094 27.808594 249.621094 C 29.035156 249.621094 30.039062 250.625 30.039062 251.851562 Z M 226.171875 267.453125 L 221.714844 267.453125 L 221.714844 251.851562 C 221.714844 250.625 222.714844 249.621094 223.941406 249.621094 C 225.167969 249.621094 226.171875 250.625 226.171875 251.851562 Z M 257.375 267.453125 L 252.914062 267.453125 L 252.914062 251.851562 C 252.914062 250.625 253.917969 249.621094 255.144531 249.621094 C 256.371094 249.621094 257.375 250.625 257.375 251.851562 Z M 266.289062 267.453125 L 266.289062 251.851562 C 266.289062 245.703125 261.292969 240.707031 255.144531 240.707031 C 248.996094 240.707031 244 245.703125 244 251.851562 L 244 267.453125 L 235.085938 267.453125 L 235.085938 251.851562 C 235.085938 245.703125 230.089844 240.707031 223.941406 240.707031 C 217.792969 240.707031 212.796875 245.703125 212.796875 251.851562 L 212.796875 267.453125 L 208.339844 267.453125 L 208.339844 231.792969 L 270.746094 231.792969 L 270.746094 267.453125 Z M 266.289062 267.453125 " fill-opacity="1" fill-rule="nonzero"/></g><path fill="#00bf63" d="M 52.324219 44.574219 C 40.035156 44.574219 30.039062 54.574219 30.039062 66.863281 L 30.039062 106.980469 C 30.039062 111.898438 34.035156 115.894531 38.953125 115.894531 L 65.699219 115.894531 C 70.617188 115.894531 74.613281 111.898438 74.613281 106.980469 L 74.613281 66.863281 C 74.613281 54.574219 64.617188 44.574219 52.324219 44.574219 Z M 65.699219 66.863281 L 56.785156 66.863281 L 56.785156 54.3125 C 61.957031 56.15625 65.699219 61.058594 65.699219 66.863281 Z M 56.785156 75.777344 L 65.699219 75.777344 L 65.699219 84.695312 L 56.785156 84.695312 Z M 47.867188 84.695312 L 38.953125 84.695312 L 38.953125 75.777344 L 47.867188 75.777344 Z M 47.867188 54.3125 L 47.867188 66.863281 L 38.953125 66.863281 C 38.953125 61.058594 42.691406 56.15625 47.867188 54.3125 Z M 38.953125 93.609375 L 47.867188 93.609375 L 47.867188 106.980469 L 38.953125 106.980469 Z M 56.785156 106.980469 L 56.785156 93.609375 L 65.703125 93.609375 L 65.703125 106.980469 Z M 56.785156 106.980469 " fill-opacity="1" fill-rule="nonzero"/><path fill="#00bf63" d="M 217.253906 115.894531 L 244 115.894531 C 248.917969 115.894531 252.914062 111.898438 252.914062 106.980469 L 252.914062 66.863281 C 252.914062 54.574219 242.917969 44.574219 230.628906 44.574219 C 218.339844 44.574219 208.339844 54.574219 208.339844 66.863281 L 208.339844 106.980469 C 208.339844 111.898438 212.339844 115.894531 217.253906 115.894531 Z M 217.253906 93.609375 L 226.171875 93.609375 L 226.171875 106.980469 L 217.253906 106.980469 Z M 226.171875 84.695312 L 217.253906 84.695312 L 217.253906 75.777344 L 226.171875 75.777344 Z M 235.085938 75.777344 L 244 75.777344 L 244 84.695312 L 235.085938 84.695312 Z M 235.085938 106.980469 L 235.085938 93.609375 L 244 93.609375 L 244 106.980469 Z M 244 66.863281 L 235.085938 66.863281 L 235.085938 54.3125 C 240.261719 56.15625 244 61.058594 244 66.863281 Z M 226.171875 54.3125 L 226.171875 66.863281 L 217.253906 66.863281 C 217.253906 61.058594 220.996094 56.15625 226.171875 54.3125 Z M 226.171875 54.3125 " fill-opacity="1" fill-rule="nonzero"/></svg>