<svg xmlns="http://www.w3.org/2000/svg" xmlns:xlink="http://www.w3.org/1999/xlink" width="377" zoomAndPan="magnify" viewBox="0 0 282.96 283.499996" height="377" preserveAspectRatio="xMidYMid meet" version="1.0"><defs><clipPath id="ea97942aa4"><path d="M 0.230469 0 L 282.691406 0 L 282.691406 283 L 0.230469 283 Z M 0.230469 0 " clip-rule="nonzero"/></clipPath></defs><g clip-path="url(#ea97942aa4)"><path fill="#00bf63" d="M 279.816406 249.269531 L 269.710938 249.269531 L 269.710938 121.265625 L 279.816406 121.265625 C 280.101562 121.265625 280.382812 121.230469 280.664062 121.15625 C 280.941406 121.085938 281.203125 120.980469 281.457031 120.839844 C 281.707031 120.699219 281.9375 120.53125 282.144531 120.332031 C 282.351562 120.132812 282.53125 119.910156 282.679688 119.667969 C 282.832031 119.421875 282.949219 119.164062 283.035156 118.890625 C 283.117188 118.613281 283.167969 118.332031 283.179688 118.046875 C 283.191406 117.761719 283.167969 117.476562 283.109375 117.195312 C 283.050781 116.914062 282.953125 116.644531 282.824219 116.386719 L 262.613281 75.964844 C 262.328125 75.398438 261.914062 74.945312 261.375 74.609375 C 260.832031 74.273438 260.242188 74.105469 259.605469 74.105469 L 164.390625 74.105469 L 145.074219 55.800781 L 145.074219 43.789062 L 182.128906 43.789062 C 182.421875 43.789062 182.707031 43.753906 182.992188 43.679688 C 183.273438 43.601562 183.542969 43.492188 183.796875 43.347656 C 184.050781 43.203125 184.28125 43.027344 184.492188 42.820312 C 184.699219 42.617188 184.878906 42.386719 185.027344 42.136719 C 185.175781 41.882812 185.289062 41.617188 185.371094 41.335938 C 185.449219 41.054688 185.492188 40.765625 185.496094 40.472656 C 185.5 40.179688 185.46875 39.894531 185.398438 39.609375 C 185.324219 39.324219 185.21875 39.054688 185.078125 38.796875 L 177.667969 25.265625 L 185.078125 11.730469 C 185.21875 11.472656 185.324219 11.203125 185.398438 10.917969 C 185.46875 10.632812 185.5 10.347656 185.496094 10.054688 C 185.492188 9.761719 185.449219 9.472656 185.371094 9.191406 C 185.289062 8.910156 185.175781 8.644531 185.027344 8.390625 C 184.878906 8.140625 184.699219 7.910156 184.492188 7.707031 C 184.28125 7.5 184.050781 7.324219 183.796875 7.179688 C 183.542969 7.035156 183.273438 6.925781 182.992188 6.851562 C 182.707031 6.773438 182.421875 6.738281 182.128906 6.738281 L 145.074219 6.738281 L 145.074219 3.367188 C 145.074219 2.921875 144.988281 2.492188 144.816406 2.078125 C 144.648438 1.667969 144.402344 1.300781 144.089844 0.988281 C 143.773438 0.671875 143.40625 0.425781 142.996094 0.257812 C 142.582031 0.0859375 142.152344 0 141.707031 0 C 141.257812 0 140.828125 0.0859375 140.417969 0.257812 C 140.003906 0.425781 139.640625 0.671875 139.324219 0.988281 C 139.007812 1.300781 138.765625 1.667969 138.59375 2.078125 C 138.421875 2.492188 138.335938 2.921875 138.335938 3.367188 L 138.335938 55.828125 L 119.042969 74.105469 L 23.808594 74.105469 C 23.171875 74.105469 22.582031 74.273438 22.039062 74.609375 C 21.496094 74.945312 21.082031 75.398438 20.796875 75.964844 L 0.585938 116.386719 C 0.457031 116.644531 0.363281 116.914062 0.304688 117.195312 C 0.242188 117.476562 0.21875 117.761719 0.234375 118.046875 C 0.246094 118.332031 0.292969 118.613281 0.378906 118.890625 C 0.464844 119.164062 0.582031 119.421875 0.730469 119.667969 C 0.882812 119.910156 1.0625 120.132812 1.269531 120.332031 C 1.476562 120.53125 1.707031 120.699219 1.957031 120.839844 C 2.207031 120.980469 2.472656 121.085938 2.75 121.15625 C 3.027344 121.230469 3.308594 121.265625 3.597656 121.265625 L 13.703125 121.265625 L 13.703125 249.269531 L 3.597656 249.269531 C 3.152344 249.269531 2.722656 249.355469 2.308594 249.527344 C 1.894531 249.695312 1.53125 249.941406 1.214844 250.253906 C 0.898438 250.570312 0.65625 250.9375 0.484375 251.347656 C 0.316406 251.761719 0.230469 252.191406 0.230469 252.636719 L 0.230469 279.585938 C 0.230469 280.03125 0.316406 280.460938 0.484375 280.875 C 0.65625 281.289062 0.898438 281.652344 1.214844 281.96875 C 1.53125 282.285156 1.894531 282.527344 2.308594 282.699219 C 2.722656 282.867188 3.152344 282.953125 3.597656 282.953125 L 279.816406 282.953125 C 280.261719 282.953125 280.691406 282.867188 281.105469 282.699219 C 281.515625 282.527344 281.878906 282.285156 282.195312 281.96875 C 282.511719 281.652344 282.753906 281.289062 282.925781 280.875 C 283.097656 280.460938 283.183594 280.03125 283.183594 279.585938 L 283.183594 252.636719 C 283.183594 252.191406 283.097656 251.761719 282.925781 251.347656 C 282.753906 250.9375 282.511719 250.570312 282.195312 250.253906 C 281.878906 249.941406 281.515625 249.695312 281.105469 249.527344 C 280.691406 249.355469 280.261719 249.269531 279.816406 249.269531 Z M 257.523438 80.84375 L 274.363281 114.527344 L 207.054688 114.527344 L 171.511719 80.84375 Z M 176.433594 13.472656 L 170.851562 23.640625 C 170.574219 24.144531 170.433594 24.6875 170.433594 25.265625 C 170.433594 25.839844 170.574219 26.382812 170.851562 26.886719 L 176.433594 37.054688 L 145.074219 37.054688 L 145.074219 13.472656 Z M 25.890625 80.84375 L 111.929688 80.84375 L 76.355469 114.527344 L 9.046875 114.527344 Z M 20.441406 121.265625 L 77.703125 121.265625 C 78.601562 121.265625 79.371094 120.957031 80.023438 120.34375 L 141.707031 61.90625 L 203.375 120.34375 C 204.03125 120.960938 204.808594 121.269531 205.707031 121.265625 L 262.972656 121.265625 L 262.972656 249.269531 L 168.652344 249.269531 L 168.652344 192.003906 C 168.652344 191.558594 168.570312 191.128906 168.398438 190.714844 C 168.226562 190.304688 167.984375 189.9375 167.667969 189.621094 C 167.351562 189.308594 166.988281 189.0625 166.574219 188.890625 C 166.160156 188.722656 165.730469 188.636719 165.285156 188.636719 L 118.125 188.636719 C 117.679688 188.636719 117.25 188.722656 116.835938 188.890625 C 116.425781 189.0625 116.0625 189.308594 115.746094 189.621094 C 115.429688 189.9375 115.183594 190.304688 115.015625 190.714844 C 114.84375 191.128906 114.757812 191.558594 114.757812 192.003906 L 114.757812 249.269531 L 20.441406 249.269531 Z M 175.390625 262.742188 L 108.019531 262.742188 L 108.019531 256.007812 L 175.390625 256.007812 Z M 161.917969 195.375 L 161.917969 249.269531 L 145.074219 249.269531 L 145.074219 195.375 Z M 138.335938 249.269531 L 121.496094 249.269531 L 121.496094 195.375 L 138.335938 195.375 Z M 6.964844 256.007812 L 101.285156 256.007812 L 101.285156 262.742188 L 91.179688 262.742188 C 90.730469 262.742188 90.300781 262.828125 89.890625 263 C 89.476562 263.171875 89.113281 263.414062 88.796875 263.730469 C 88.480469 264.046875 88.238281 264.410156 88.066406 264.824219 C 87.894531 265.234375 87.808594 265.664062 87.808594 266.113281 L 87.808594 276.21875 L 6.964844 276.21875 Z M 94.546875 276.21875 L 94.546875 269.480469 L 188.863281 269.480469 L 188.863281 276.21875 Z M 276.445312 276.21875 L 195.601562 276.21875 L 195.601562 266.113281 C 195.601562 265.664062 195.515625 265.234375 195.347656 264.824219 C 195.175781 264.410156 194.929688 264.046875 194.617188 263.730469 C 194.300781 263.414062 193.933594 263.171875 193.523438 263 C 193.109375 262.828125 192.679688 262.742188 192.234375 262.742188 L 182.128906 262.742188 L 182.128906 256.007812 L 276.445312 256.007812 Z M 276.445312 276.21875 " fill-opacity="1" fill-rule="nonzero"/></g><path fill="#00bf63" d="M 57.492188 188.636719 L 37.28125 188.636719 C 36.835938 188.636719 36.40625 188.722656 35.992188 188.890625 C 35.582031 189.0625 35.214844 189.308594 34.902344 189.621094 C 34.585938 189.9375 34.339844 190.304688 34.171875 190.714844 C 34 191.128906 33.914062 191.558594 33.914062 192.003906 L 33.914062 225.691406 C 33.914062 226.136719 34 226.566406 34.171875 226.980469 C 34.339844 227.390625 34.585938 227.753906 34.902344 228.070312 C 35.214844 228.386719 35.582031 228.628906 35.992188 228.800781 C 36.40625 228.972656 36.835938 229.058594 37.28125 229.058594 L 57.492188 229.058594 C 57.941406 229.058594 58.371094 228.972656 58.78125 228.800781 C 59.195312 228.628906 59.558594 228.386719 59.875 228.070312 C 60.191406 227.753906 60.433594 227.390625 60.605469 226.980469 C 60.777344 226.566406 60.863281 226.136719 60.863281 225.691406 L 60.863281 192.003906 C 60.863281 191.558594 60.777344 191.128906 60.605469 190.714844 C 60.433594 190.304688 60.191406 189.9375 59.875 189.621094 C 59.558594 189.308594 59.195312 189.0625 58.78125 188.890625 C 58.371094 188.722656 57.941406 188.636719 57.492188 188.636719 Z M 54.125 195.375 L 54.125 208.847656 L 40.652344 208.847656 L 40.652344 195.375 Z M 54.125 222.320312 L 40.652344 222.320312 L 40.652344 215.585938 L 54.125 215.585938 Z M 54.125 222.320312 " fill-opacity="1" fill-rule="nonzero"/><path fill="#00bf63" d="M 97.914062 188.636719 L 77.703125 188.636719 C 77.257812 188.636719 76.828125 188.722656 76.414062 188.890625 C 76.003906 189.0625 75.636719 189.308594 75.324219 189.621094 C 75.007812 189.9375 74.761719 190.304688 74.59375 190.714844 C 74.421875 191.128906 74.335938 191.558594 74.335938 192.003906 L 74.335938 225.691406 C 74.335938 226.136719 74.421875 226.566406 74.59375 226.980469 C 74.761719 227.390625 75.007812 227.753906 75.324219 228.070312 C 75.636719 228.386719 76.003906 228.628906 76.414062 228.800781 C 76.828125 228.972656 77.257812 229.058594 77.703125 229.058594 L 97.914062 229.058594 C 98.363281 229.058594 98.792969 228.972656 99.203125 228.800781 C 99.617188 228.628906 99.980469 228.386719 100.296875 228.070312 C 100.613281 227.753906 100.855469 227.390625 101.027344 226.980469 C 101.199219 226.566406 101.285156 226.136719 101.285156 225.691406 L 101.285156 192.003906 C 101.285156 191.558594 101.199219 191.128906 101.027344 190.714844 C 100.855469 190.304688 100.613281 189.9375 100.296875 189.621094 C 99.980469 189.308594 99.617188 189.0625 99.203125 188.890625 C 98.792969 188.722656 98.363281 188.636719 97.914062 188.636719 Z M 94.546875 195.375 L 94.546875 208.847656 L 81.074219 208.847656 L 81.074219 195.375 Z M 94.546875 222.320312 L 81.074219 222.320312 L 81.074219 215.585938 L 94.546875 215.585938 Z M 94.546875 222.320312 " fill-opacity="1" fill-rule="nonzero"/><path fill="#00bf63" d="M 185.496094 229.058594 L 205.707031 229.058594 C 206.15625 229.058594 206.585938 228.972656 206.996094 228.800781 C 207.410156 228.628906 207.773438 228.386719 208.089844 228.070312 C 208.40625 227.753906 208.648438 227.390625 208.820312 226.980469 C 208.992188 226.566406 209.074219 226.136719 209.078125 225.691406 L 209.078125 192.003906 C 209.074219 191.558594 208.992188 191.128906 208.820312 190.714844 C 208.648438 190.304688 208.40625 189.9375 208.089844 189.621094 C 207.773438 189.308594 207.410156 189.0625 206.996094 188.890625 C 206.585938 188.722656 206.15625 188.636719 205.707031 188.636719 L 185.496094 188.636719 C 185.050781 188.636719 184.621094 188.722656 184.207031 188.890625 C 183.792969 189.0625 183.429688 189.308594 183.113281 189.621094 C 182.800781 189.9375 182.554688 190.304688 182.382812 190.714844 C 182.214844 191.128906 182.128906 191.558594 182.128906 192.003906 L 182.128906 225.691406 C 182.128906 226.136719 182.214844 226.566406 182.382812 226.980469 C 182.554688 227.390625 182.800781 227.753906 183.113281 228.070312 C 183.429688 228.386719 183.792969 228.628906 184.207031 228.800781 C 184.621094 228.972656 185.050781 229.058594 185.496094 229.058594 Z M 202.339844 222.320312 L 188.863281 222.320312 L 188.863281 215.585938 L 202.339844 215.585938 Z M 202.339844 195.375 L 202.339844 208.847656 L 188.863281 208.847656 L 188.863281 195.375 Z M 202.339844 195.375 " fill-opacity="1" fill-rule="nonzero"/><path fill="#00bf63" d="M 225.917969 229.058594 L 246.128906 229.058594 C 246.578125 229.058594 247.007812 228.972656 247.417969 228.800781 C 247.832031 228.628906 248.195312 228.386719 248.511719 228.070312 C 248.828125 227.753906 249.070312 227.390625 249.242188 226.980469 C 249.414062 226.566406 249.5 226.136719 249.5 225.691406 L 249.5 192.003906 C 249.5 191.558594 249.414062 191.128906 249.242188 190.714844 C 249.070312 190.304688 248.828125 189.9375 248.511719 189.621094 C 248.195312 189.308594 247.832031 189.0625 247.417969 188.890625 C 247.007812 188.722656 246.578125 188.636719 246.128906 188.636719 L 225.917969 188.636719 C 225.472656 188.636719 225.042969 188.722656 224.628906 188.890625 C 224.21875 189.0625 223.851562 189.308594 223.535156 189.621094 C 223.222656 189.9375 222.976562 190.304688 222.804688 190.714844 C 222.636719 191.128906 222.550781 191.558594 222.550781 192.003906 L 222.550781 225.691406 C 222.550781 226.136719 222.636719 226.566406 222.804688 226.980469 C 222.976562 227.390625 223.222656 227.753906 223.535156 228.070312 C 223.851562 228.386719 224.21875 228.628906 224.628906 228.800781 C 225.042969 228.972656 225.472656 229.058594 225.917969 229.058594 Z M 242.761719 222.320312 L 229.289062 222.320312 L 229.289062 215.585938 L 242.761719 215.585938 Z M 242.761719 195.375 L 242.761719 208.847656 L 229.289062 208.847656 L 229.289062 195.375 Z M 242.761719 195.375 " fill-opacity="1" fill-rule="nonzero"/><path fill="#00bf63" d="M 57.492188 134.738281 L 37.28125 134.738281 C 36.835938 134.738281 36.40625 134.824219 35.992188 134.996094 C 35.582031 135.167969 35.214844 135.410156 34.902344 135.726562 C 34.585938 136.042969 34.339844 136.40625 34.171875 136.820312 C 34 137.230469 33.914062 137.660156 33.914062 138.109375 L 33.914062 171.792969 C 33.914062 172.238281 34 172.667969 34.171875 173.082031 C 34.339844 173.496094 34.585938 173.859375 34.902344 174.175781 C 35.214844 174.492188 35.582031 174.734375 35.992188 174.90625 C 36.40625 175.078125 36.835938 175.160156 37.28125 175.160156 L 57.492188 175.160156 C 57.941406 175.160156 58.371094 175.078125 58.78125 174.90625 C 59.195312 174.734375 59.558594 174.492188 59.875 174.175781 C 60.191406 173.859375 60.433594 173.496094 60.605469 173.082031 C 60.777344 172.667969 60.863281 172.238281 60.863281 171.792969 L 60.863281 138.109375 C 60.863281 137.660156 60.777344 137.230469 60.605469 136.820312 C 60.433594 136.40625 60.191406 136.042969 59.875 135.726562 C 59.558594 135.410156 59.195312 135.167969 58.78125 134.996094 C 58.371094 134.824219 57.941406 134.738281 57.492188 134.738281 Z M 54.125 141.476562 L 54.125 154.949219 L 40.652344 154.949219 L 40.652344 141.476562 Z M 54.125 168.425781 L 40.652344 168.425781 L 40.652344 161.6875 L 54.125 161.6875 Z M 54.125 168.425781 " fill-opacity="1" fill-rule="nonzero"/><path fill="#00bf63" d="M 97.914062 134.738281 L 77.703125 134.738281 C 77.257812 134.738281 76.828125 134.824219 76.414062 134.996094 C 76.003906 135.167969 75.636719 135.410156 75.324219 135.726562 C 75.007812 136.042969 74.761719 136.40625 74.59375 136.820312 C 74.421875 137.230469 74.335938 137.660156 74.335938 138.109375 L 74.335938 171.792969 C 74.335938 172.238281 74.421875 172.667969 74.59375 173.082031 C 74.761719 173.496094 75.007812 173.859375 75.324219 174.175781 C 75.636719 174.492188 76.003906 174.734375 76.414062 174.90625 C 76.828125 175.078125 77.257812 175.160156 77.703125 175.160156 L 97.914062 175.160156 C 98.363281 175.160156 98.792969 175.078125 99.203125 174.90625 C 99.617188 174.734375 99.980469 174.492188 100.296875 174.175781 C 100.613281 173.859375 100.855469 173.496094 101.027344 173.082031 C 101.199219 172.667969 101.285156 172.238281 101.285156 171.792969 L 101.285156 138.109375 C 101.285156 137.660156 101.199219 137.230469 101.027344 136.820312 C 100.855469 136.40625 100.613281 136.042969 100.296875 135.726562 C 99.980469 135.410156 99.617188 135.167969 99.203125 134.996094 C 98.792969 134.824219 98.363281 134.738281 97.914062 134.738281 Z M 94.546875 141.476562 L 94.546875 154.949219 L 81.074219 154.949219 L 81.074219 141.476562 Z M 94.546875 168.425781 L 81.074219 168.425781 L 81.074219 161.6875 L 94.546875 161.6875 Z M 94.546875 168.425781 " fill-opacity="1" fill-rule="nonzero"/><path fill="#00bf63" d="M 158.546875 134.738281 L 124.863281 134.738281 C 124.417969 134.738281 123.988281 134.824219 123.574219 134.996094 C 123.160156 135.167969 122.796875 135.410156 122.480469 135.726562 C 122.164062 136.042969 121.921875 136.40625 121.75 136.820312 C 121.582031 137.230469 121.496094 137.660156 121.496094 138.109375 L 121.496094 171.792969 C 121.496094 172.238281 121.582031 172.667969 121.75 173.082031 C 121.921875 173.496094 122.164062 173.859375 122.480469 174.175781 C 122.796875 174.492188 123.160156 174.734375 123.574219 174.90625 C 123.988281 175.078125 124.417969 175.160156 124.863281 175.160156 L 158.546875 175.160156 C 158.996094 175.160156 159.425781 175.078125 159.835938 174.90625 C 160.25 174.734375 160.613281 174.492188 160.929688 174.175781 C 161.246094 173.859375 161.488281 173.496094 161.660156 173.082031 C 161.832031 172.667969 161.917969 172.238281 161.917969 171.792969 L 161.917969 138.109375 C 161.917969 137.660156 161.832031 137.230469 161.660156 136.820312 C 161.488281 136.40625 161.246094 136.042969 160.929688 135.726562 C 160.613281 135.410156 160.25 135.167969 159.835938 134.996094 C 159.425781 134.824219 158.996094 134.738281 158.546875 134.738281 Z M 155.179688 141.476562 L 155.179688 154.949219 L 128.230469 154.949219 L 128.230469 141.476562 Z M 155.179688 168.425781 L 128.230469 168.425781 L 128.230469 161.6875 L 155.179688 161.6875 Z M 155.179688 168.425781 " fill-opacity="1" fill-rule="nonzero"/><path fill="#00bf63" d="M 185.496094 175.160156 L 205.707031 175.160156 C 206.15625 175.160156 206.585938 175.078125 206.996094 174.90625 C 207.410156 174.734375 207.773438 174.492188 208.089844 174.175781 C 208.40625 173.859375 208.648438 173.496094 208.820312 173.082031 C 208.992188 172.667969 209.074219 172.238281 209.078125 171.792969 L 209.078125 138.109375 C 209.074219 137.660156 208.992188 137.230469 208.820312 136.820312 C 208.648438 136.40625 208.40625 136.042969 208.089844 135.726562 C 207.773438 135.410156 207.410156 135.167969 206.996094 134.996094 C 206.585938 134.824219 206.15625 134.738281 205.707031 134.738281 L 185.496094 134.738281 C 185.050781 134.738281 184.621094 134.824219 184.207031 134.996094 C 183.792969 135.167969 183.429688 135.410156 183.113281 135.726562 C 182.800781 136.042969 182.554688 136.40625 182.382812 136.820312 C 182.214844 137.230469 182.128906 137.660156 182.128906 138.109375 L 182.128906 171.792969 C 182.128906 172.238281 182.214844 172.667969 182.382812 173.082031 C 182.554688 173.496094 182.800781 173.859375 183.113281 174.175781 C 183.429688 174.492188 183.792969 174.734375 184.207031 174.90625 C 184.621094 175.078125 185.050781 175.160156 185.496094 175.160156 Z M 202.339844 168.425781 L 188.863281 168.425781 L 188.863281 161.6875 L 202.339844 161.6875 Z M 202.339844 141.476562 L 202.339844 154.949219 L 188.863281 154.949219 L 188.863281 141.476562 Z M 202.339844 141.476562 " fill-opacity="1" fill-rule="nonzero"/><path fill="#00bf63" d="M 225.917969 175.160156 L 246.128906 175.160156 C 246.578125 175.160156 247.007812 175.078125 247.417969 174.90625 C 247.832031 174.734375 248.195312 174.492188 248.511719 174.175781 C 248.828125 173.859375 249.070312 173.496094 249.242188 173.082031 C 249.414062 172.667969 249.5 172.238281 249.5 171.792969 L 249.5 138.109375 C 249.5 137.660156 249.414062 137.230469 249.242188 136.820312 C 249.070312 136.40625 248.828125 136.042969 248.511719 135.726562 C 248.195312 135.410156 247.832031 135.167969 247.417969 134.996094 C 247.007812 134.824219 246.578125 134.738281 246.128906 134.738281 L 225.917969 134.738281 C 225.472656 134.738281 225.042969 134.824219 224.628906 134.996094 C 224.21875 135.167969 223.851562 135.410156 223.535156 135.726562 C 223.222656 136.042969 222.976562 136.40625 222.804688 136.820312 C 222.636719 137.230469 222.550781 137.660156 222.550781 138.109375 L 222.550781 171.792969 C 222.550781 172.238281 222.636719 172.667969 222.804688 173.082031 C 222.976562 173.496094 223.222656 173.859375 223.535156 174.175781 C 223.851562 174.492188 224.21875 174.734375 224.628906 174.90625 C 225.042969 175.078125 225.472656 175.160156 225.917969 175.160156 Z M 242.761719 168.425781 L 229.289062 168.425781 L 229.289062 161.6875 L 242.761719 161.6875 Z M 242.761719 141.476562 L 242.761719 154.949219 L 229.289062 154.949219 L 229.289062 141.476562 Z M 242.761719 141.476562 " fill-opacity="1" fill-rule="nonzero"/><path fill="#00bf63" d="M 141.707031 128.003906 C 142.476562 128.003906 143.25 127.964844 144.015625 127.890625 C 144.785156 127.8125 145.550781 127.699219 146.304688 127.550781 C 147.0625 127.398438 147.8125 127.210938 148.550781 126.988281 C 149.289062 126.761719 150.015625 126.503906 150.730469 126.207031 C 151.441406 125.914062 152.140625 125.582031 152.820312 125.21875 C 153.503906 124.855469 154.164062 124.457031 154.804688 124.027344 C 155.449219 123.601562 156.066406 123.140625 156.664062 122.652344 C 157.261719 122.160156 157.832031 121.644531 158.378906 121.097656 C 158.925781 120.550781 159.445312 119.980469 159.933594 119.382812 C 160.421875 118.785156 160.882812 118.164062 161.3125 117.523438 C 161.742188 116.882812 162.136719 116.21875 162.5 115.539062 C 162.867188 114.859375 163.195312 114.160156 163.492188 113.445312 C 163.785156 112.734375 164.046875 112.007812 164.269531 111.269531 C 164.496094 110.53125 164.683594 109.78125 164.832031 109.023438 C 164.984375 108.265625 165.097656 107.503906 165.171875 106.734375 C 165.246094 105.964844 165.285156 105.195312 165.285156 104.421875 C 165.285156 103.652344 165.246094 102.882812 165.171875 102.113281 C 165.097656 101.34375 164.984375 100.582031 164.832031 99.824219 C 164.683594 99.066406 164.496094 98.316406 164.269531 97.578125 C 164.046875 96.839844 163.785156 96.113281 163.492188 95.398438 C 163.195312 94.6875 162.867188 93.988281 162.5 93.308594 C 162.136719 92.628906 161.742188 91.964844 161.3125 91.324219 C 160.882812 90.679688 160.421875 90.0625 159.933594 89.464844 C 159.445312 88.867188 158.925781 88.296875 158.378906 87.75 C 157.832031 87.203125 157.261719 86.6875 156.664062 86.195312 C 156.066406 85.707031 155.449219 85.246094 154.804688 84.816406 C 154.164062 84.390625 153.503906 83.992188 152.820312 83.628906 C 152.140625 83.265625 151.441406 82.933594 150.730469 82.640625 C 150.015625 82.34375 149.289062 82.082031 148.550781 81.859375 C 147.8125 81.636719 147.0625 81.449219 146.304688 81.296875 C 145.550781 81.144531 144.785156 81.035156 144.015625 80.957031 C 143.25 80.882812 142.476562 80.84375 141.707031 80.84375 C 140.933594 80.84375 140.164062 80.882812 139.394531 80.957031 C 138.625 81.035156 137.863281 81.144531 137.105469 81.296875 C 136.347656 81.449219 135.601562 81.636719 134.863281 81.859375 C 134.121094 82.082031 133.394531 82.34375 132.683594 82.640625 C 131.96875 82.933594 131.273438 83.265625 130.589844 83.628906 C 129.910156 83.992188 129.25 84.390625 128.605469 84.816406 C 127.964844 85.246094 127.34375 85.707031 126.746094 86.195312 C 126.152344 86.6875 125.578125 87.203125 125.03125 87.75 C 124.488281 88.296875 123.96875 88.867188 123.480469 89.464844 C 122.988281 90.0625 122.53125 90.679688 122.101562 91.324219 C 121.671875 91.964844 121.273438 92.628906 120.910156 93.308594 C 120.546875 93.988281 120.21875 94.6875 119.921875 95.398438 C 119.625 96.113281 119.367188 96.839844 119.140625 97.578125 C 118.917969 98.316406 118.730469 99.066406 118.578125 99.824219 C 118.429688 100.582031 118.316406 101.34375 118.238281 102.113281 C 118.164062 102.882812 118.125 103.652344 118.125 104.421875 C 118.125 105.195312 118.164062 105.964844 118.238281 106.734375 C 118.316406 107.503906 118.429688 108.265625 118.578125 109.023438 C 118.730469 109.78125 118.917969 110.527344 119.140625 111.269531 C 119.367188 112.007812 119.625 112.734375 119.921875 113.445312 C 120.21875 114.160156 120.546875 114.859375 120.910156 115.539062 C 121.273438 116.21875 121.671875 116.882812 122.101562 117.523438 C 122.53125 118.164062 122.988281 118.785156 123.480469 119.382812 C 123.96875 119.980469 124.488281 120.550781 125.03125 121.097656 C 125.578125 121.644531 126.152344 122.160156 126.746094 122.652344 C 127.34375 123.140625 127.964844 123.601562 128.605469 124.027344 C 129.25 124.457031 129.910156 124.855469 130.589844 125.21875 C 131.273438 125.582031 131.96875 125.914062 132.683594 126.207031 C 133.394531 126.503906 134.121094 126.761719 134.863281 126.988281 C 135.601562 127.210938 136.347656 127.398438 137.105469 127.550781 C 137.863281 127.699219 138.625 127.8125 139.394531 127.890625 C 140.164062 127.964844 140.933594 128.003906 141.707031 128.003906 Z M 141.707031 87.582031 C 142.257812 87.582031 142.808594 87.609375 143.355469 87.664062 C 143.90625 87.714844 144.449219 87.796875 144.992188 87.90625 C 145.53125 88.011719 146.066406 88.144531 146.59375 88.304688 C 147.125 88.464844 147.640625 88.652344 148.152344 88.863281 C 148.660156 89.074219 149.160156 89.308594 149.644531 89.570312 C 150.132812 89.828125 150.605469 90.113281 151.0625 90.417969 C 151.523438 90.726562 151.964844 91.054688 152.390625 91.402344 C 152.816406 91.753906 153.226562 92.125 153.617188 92.515625 C 154.003906 92.902344 154.375 93.3125 154.726562 93.738281 C 155.074219 94.164062 155.402344 94.609375 155.710938 95.066406 C 156.015625 95.523438 156.300781 95.996094 156.558594 96.484375 C 156.820312 96.96875 157.054688 97.46875 157.265625 97.976562 C 157.476562 98.488281 157.664062 99.007812 157.824219 99.535156 C 157.984375 100.0625 158.117188 100.597656 158.226562 101.136719 C 158.332031 101.679688 158.414062 102.222656 158.46875 102.773438 C 158.523438 103.320312 158.546875 103.871094 158.546875 104.421875 C 158.546875 104.976562 158.523438 105.527344 158.46875 106.074219 C 158.414062 106.625 158.332031 107.167969 158.226562 107.710938 C 158.117188 108.25 157.984375 108.785156 157.824219 109.3125 C 157.664062 109.839844 157.476562 110.359375 157.265625 110.867188 C 157.054688 111.378906 156.820312 111.875 156.558594 112.363281 C 156.300781 112.847656 156.015625 113.320312 155.710938 113.78125 C 155.402344 114.238281 155.074219 114.683594 154.726562 115.109375 C 154.375 115.535156 154.003906 115.941406 153.617188 116.332031 C 153.226562 116.722656 152.816406 117.09375 152.390625 117.441406 C 151.964844 117.792969 151.523438 118.121094 151.0625 118.425781 C 150.605469 118.734375 150.132812 119.015625 149.644531 119.277344 C 149.160156 119.539062 148.660156 119.773438 148.152344 119.984375 C 147.640625 120.195312 147.125 120.378906 146.59375 120.539062 C 146.066406 120.699219 145.53125 120.835938 144.992188 120.941406 C 144.449219 121.050781 143.90625 121.132812 143.355469 121.183594 C 142.808594 121.238281 142.257812 121.265625 141.707031 121.265625 C 141.15625 121.265625 140.605469 121.238281 140.054688 121.183594 C 139.507812 121.132812 138.960938 121.050781 138.421875 120.941406 C 137.878906 120.835938 137.34375 120.699219 136.816406 120.539062 C 136.289062 120.378906 135.769531 120.195312 135.261719 119.984375 C 134.75 119.773438 134.253906 119.539062 133.765625 119.277344 C 133.28125 119.015625 132.808594 118.734375 132.347656 118.425781 C 131.890625 118.121094 131.449219 117.792969 131.019531 117.441406 C 130.59375 117.09375 130.1875 116.722656 129.796875 116.332031 C 129.40625 115.941406 129.035156 115.535156 128.6875 115.109375 C 128.335938 114.683594 128.007812 114.238281 127.703125 113.78125 C 127.394531 113.320312 127.113281 112.847656 126.851562 112.363281 C 126.59375 111.875 126.355469 111.378906 126.144531 110.867188 C 125.933594 110.359375 125.75 109.839844 125.589844 109.3125 C 125.429688 108.785156 125.292969 108.25 125.1875 107.710938 C 125.078125 107.167969 125 106.625 124.945312 106.074219 C 124.890625 105.527344 124.863281 104.976562 124.863281 104.421875 C 124.863281 103.871094 124.890625 103.320312 124.945312 102.773438 C 125 102.222656 125.078125 101.679688 125.1875 101.136719 C 125.292969 100.597656 125.429688 100.0625 125.589844 99.535156 C 125.75 99.007812 125.933594 98.488281 126.144531 97.976562 C 126.355469 97.46875 126.59375 96.96875 126.851562 96.484375 C 127.113281 95.996094 127.394531 95.523438 127.703125 95.066406 C 128.007812 94.609375 128.335938 94.164062 128.6875 93.738281 C 129.035156 93.3125 129.40625 92.902344 129.796875 92.515625 C 130.1875 92.125 130.59375 91.753906 131.019531 91.402344 C 131.449219 91.054688 131.890625 90.726562 132.347656 90.417969 C 132.808594 90.113281 133.28125 89.828125 133.765625 89.570312 C 134.253906 89.308594 134.75 89.074219 135.261719 88.863281 C 135.769531 88.652344 136.289062 88.464844 136.816406 88.304688 C 137.34375 88.144531 137.878906 88.011719 138.421875 87.90625 C 138.960938 87.796875 139.507812 87.714844 140.054688 87.664062 C 140.605469 87.609375 141.15625 87.582031 141.707031 87.582031 Z M 141.707031 87.582031 " fill-opacity="1" fill-rule="nonzero"/><path fill="#00bf63" d="M 141.53125 107.792969 C 141.972656 107.792969 142.398438 107.707031 142.804688 107.542969 C 143.214844 107.375 143.578125 107.136719 143.890625 106.828125 C 144.207031 106.519531 144.453125 106.160156 144.625 105.753906 C 144.800781 105.347656 144.890625 104.925781 144.898438 104.484375 L 145.046875 96.398438 C 145.054688 95.953125 144.976562 95.523438 144.816406 95.109375 C 144.652344 94.691406 144.414062 94.324219 144.105469 94.003906 C 143.796875 93.679688 143.4375 93.429688 143.027344 93.253906 C 142.621094 93.074219 142.191406 92.980469 141.746094 92.96875 L 141.707031 92.96875 C 141.265625 92.96875 140.839844 93.054688 140.429688 93.222656 C 140.023438 93.386719 139.660156 93.625 139.34375 93.9375 C 139.03125 94.246094 138.785156 94.601562 138.609375 95.007812 C 138.4375 95.414062 138.34375 95.835938 138.335938 96.277344 L 138.25 100.996094 L 131.628906 100.945312 C 131.402344 100.9375 131.179688 100.953125 130.960938 100.988281 C 130.738281 101.023438 130.523438 101.082031 130.316406 101.164062 C 130.109375 101.246094 129.910156 101.347656 129.722656 101.46875 C 129.535156 101.59375 129.363281 101.734375 129.203125 101.890625 C 129.046875 102.050781 128.90625 102.222656 128.78125 102.410156 C 128.660156 102.597656 128.558594 102.796875 128.476562 103.003906 C 128.394531 103.214844 128.335938 103.429688 128.300781 103.648438 C 128.261719 103.871094 128.25 104.09375 128.257812 104.316406 C 128.257812 104.761719 128.34375 105.191406 128.515625 105.605469 C 128.6875 106.015625 128.929688 106.382812 129.246094 106.699219 C 129.5625 107.011719 129.925781 107.257812 130.339844 107.429688 C 130.75 107.597656 131.179688 107.683594 131.628906 107.683594 Z M 141.53125 107.792969 " fill-opacity="1" fill-rule="nonzero"/></svg>