<svg xmlns="http://www.w3.org/2000/svg" xmlns:xlink="http://www.w3.org/1999/xlink" width="377" zoomAndPan="magnify" viewBox="0 0 282.96 283.499996" height="377" preserveAspectRatio="xMidYMid meet" version="1.0"><defs><clipPath id="f3004cfb4d"><path d="M 2.054688 158 L 282.691406 158 L 282.691406 185 L 2.054688 185 Z M 2.054688 158 " clip-rule="nonzero"/></clipPath><clipPath id="c788103e07"><path d="M 10 180 L 275 180 L 275 281.503906 L 10 281.503906 Z M 10 180 " clip-rule="nonzero"/></clipPath></defs><g clip-path="url(#f3004cfb4d)"><path fill="#00bf63" d="M 278.800781 184.5 L 6.445312 184.5 C 6.15625 184.5 5.871094 184.46875 5.589844 184.414062 C 5.304688 184.359375 5.03125 184.273438 4.765625 184.164062 C 4.496094 184.054688 4.246094 183.917969 4.003906 183.757812 C 3.765625 183.597656 3.542969 183.414062 3.339844 183.210938 C 3.136719 183.007812 2.953125 182.785156 2.792969 182.546875 C 2.632812 182.304688 2.496094 182.054688 2.386719 181.785156 C 2.277344 181.519531 2.195312 181.246094 2.136719 180.960938 C 2.082031 180.679688 2.054688 180.394531 2.054688 180.105469 L 2.054688 162.535156 C 2.054688 162.246094 2.082031 161.960938 2.136719 161.675781 C 2.195312 161.394531 2.277344 161.121094 2.386719 160.851562 C 2.496094 160.585938 2.632812 160.332031 2.792969 160.09375 C 2.953125 159.855469 3.136719 159.632812 3.339844 159.429688 C 3.542969 159.222656 3.765625 159.042969 4.003906 158.882812 C 4.246094 158.722656 4.496094 158.585938 4.765625 158.476562 C 5.03125 158.367188 5.304688 158.28125 5.589844 158.226562 C 5.871094 158.167969 6.15625 158.140625 6.445312 158.140625 L 278.800781 158.140625 C 279.089844 158.140625 279.375 158.167969 279.65625 158.226562 C 279.941406 158.28125 280.214844 158.367188 280.480469 158.476562 C 280.75 158.585938 281 158.722656 281.242188 158.882812 C 281.480469 159.042969 281.703125 159.222656 281.90625 159.429688 C 282.109375 159.632812 282.292969 159.855469 282.453125 160.09375 C 282.613281 160.332031 282.75 160.585938 282.859375 160.851562 C 282.96875 161.121094 283.054688 161.394531 283.109375 161.675781 C 283.164062 161.960938 283.195312 162.246094 283.195312 162.535156 L 283.195312 180.105469 C 283.195312 180.394531 283.164062 180.679688 283.109375 180.960938 C 283.054688 181.246094 282.96875 181.519531 282.859375 181.785156 C 282.75 182.054688 282.613281 182.304688 282.453125 182.546875 C 282.292969 182.785156 282.109375 183.007812 281.90625 183.210938 C 281.703125 183.414062 281.480469 183.597656 281.242188 183.757812 C 281 183.917969 280.75 184.054688 280.480469 184.164062 C 280.214844 184.273438 279.941406 184.359375 279.65625 184.414062 C 279.375 184.46875 279.089844 184.5 278.800781 184.5 Z M 10.839844 175.714844 L 274.40625 175.714844 L 274.40625 166.925781 L 10.839844 166.925781 Z M 10.839844 175.714844 " fill-opacity="1" fill-rule="nonzero"/></g><path fill="#00bf63" d="M 125.050781 87.855469 C 124.1875 87.855469 123.328125 87.8125 122.46875 87.726562 C 121.609375 87.640625 120.757812 87.515625 119.910156 87.347656 C 119.066406 87.175781 118.230469 86.964844 117.402344 86.714844 C 116.578125 86.464844 115.765625 86.171875 114.96875 85.84375 C 114.171875 85.511719 113.394531 85.144531 112.632812 84.738281 C 111.871094 84.328125 111.132812 83.886719 110.414062 83.40625 C 109.699219 82.925781 109.003906 82.414062 108.339844 81.867188 C 107.671875 81.316406 107.03125 80.738281 106.421875 80.128906 C 105.8125 79.519531 105.234375 78.878906 104.6875 78.214844 C 104.136719 77.546875 103.625 76.855469 103.144531 76.136719 C 102.664062 75.417969 102.222656 74.679688 101.816406 73.917969 C 101.40625 73.15625 101.039062 72.378906 100.707031 71.582031 C 100.378906 70.785156 100.085938 69.972656 99.835938 69.148438 C 99.585938 68.320312 99.375 67.484375 99.207031 66.640625 C 99.035156 65.792969 98.910156 64.941406 98.824219 64.082031 C 98.738281 63.222656 98.695312 62.363281 98.695312 61.5 L 98.695312 48.320312 C 98.695312 48.03125 98.722656 47.746094 98.78125 47.464844 C 98.835938 47.179688 98.917969 46.90625 99.03125 46.640625 C 99.140625 46.375 99.273438 46.121094 99.433594 45.878906 C 99.59375 45.640625 99.777344 45.417969 99.980469 45.214844 C 100.183594 45.011719 100.40625 44.828125 100.648438 44.667969 C 100.886719 44.507812 101.140625 44.371094 101.40625 44.261719 C 101.671875 44.152344 101.949219 44.070312 102.230469 44.011719 C 102.511719 43.957031 102.800781 43.929688 103.085938 43.929688 C 103.382812 43.957031 103.679688 43.953125 103.972656 43.917969 C 104.269531 43.878906 104.554688 43.8125 104.835938 43.710938 C 105.113281 43.613281 105.378906 43.484375 105.632812 43.324219 C 105.882812 43.164062 106.113281 42.980469 106.324219 42.769531 C 106.53125 42.558594 106.71875 42.328125 106.875 42.078125 C 107.035156 41.828125 107.164062 41.5625 107.265625 41.28125 C 107.363281 41.003906 107.433594 40.714844 107.46875 40.421875 C 107.507812 40.125 107.507812 39.832031 107.480469 39.535156 C 107.480469 38.996094 107.578125 38.472656 107.769531 37.964844 C 107.964844 37.460938 108.238281 37.007812 108.601562 36.605469 C 108.960938 36.199219 109.382812 35.875 109.863281 35.628906 C 110.34375 35.378906 110.855469 35.226562 111.390625 35.167969 C 111.929688 35.109375 112.460938 35.148438 112.984375 35.285156 C 113.507812 35.421875 113.988281 35.644531 114.429688 35.960938 C 114.867188 36.277344 115.238281 36.660156 115.535156 37.109375 C 115.835938 37.558594 116.042969 38.050781 116.160156 38.578125 C 116.839844 39.363281 121.898438 43.929688 147.015625 43.929688 C 147.304688 43.929688 147.589844 43.957031 147.871094 44.011719 C 148.15625 44.070312 148.429688 44.152344 148.695312 44.261719 C 148.964844 44.371094 149.214844 44.507812 149.457031 44.667969 C 149.695312 44.828125 149.917969 45.011719 150.121094 45.214844 C 150.324219 45.417969 150.507812 45.640625 150.667969 45.878906 C 150.828125 46.121094 150.964844 46.375 151.074219 46.640625 C 151.183594 46.90625 151.269531 47.179688 151.324219 47.464844 C 151.378906 47.746094 151.410156 48.03125 151.410156 48.320312 L 151.410156 61.5 C 151.40625 62.363281 151.363281 63.222656 151.28125 64.082031 C 151.195312 64.941406 151.066406 65.792969 150.898438 66.640625 C 150.730469 67.484375 150.519531 68.320312 150.269531 69.148438 C 150.015625 69.972656 149.726562 70.785156 149.394531 71.582031 C 149.066406 72.378906 148.695312 73.15625 148.289062 73.917969 C 147.882812 74.679688 147.4375 75.417969 146.957031 76.136719 C 146.480469 76.855469 145.964844 77.546875 145.417969 78.214844 C 144.871094 78.878906 144.292969 79.519531 143.679688 80.128906 C 143.070312 80.738281 142.433594 81.316406 141.765625 81.867188 C 141.097656 82.414062 140.40625 82.925781 139.6875 83.40625 C 138.972656 83.886719 138.230469 84.328125 137.472656 84.738281 C 136.710938 85.144531 135.929688 85.511719 135.132812 85.84375 C 134.335938 86.171875 133.527344 86.464844 132.699219 86.714844 C 131.875 86.964844 131.039062 87.175781 130.191406 87.347656 C 129.347656 87.515625 128.492188 87.640625 127.632812 87.726562 C 126.777344 87.8125 125.914062 87.855469 125.050781 87.855469 Z M 107.480469 51.980469 L 107.480469 61.5 C 107.480469 62.074219 107.507812 62.648438 107.566406 63.222656 C 107.621094 63.792969 107.707031 64.363281 107.816406 64.925781 C 107.929688 65.492188 108.070312 66.050781 108.238281 66.601562 C 108.402344 67.152344 108.597656 67.691406 108.816406 68.222656 C 109.039062 68.753906 109.285156 69.273438 109.554688 69.78125 C 109.828125 70.289062 110.121094 70.78125 110.441406 71.261719 C 110.761719 71.738281 111.105469 72.203125 111.46875 72.648438 C 111.835938 73.089844 112.21875 73.515625 112.628906 73.925781 C 113.035156 74.332031 113.460938 74.71875 113.90625 75.082031 C 114.351562 75.449219 114.8125 75.789062 115.289062 76.109375 C 115.769531 76.429688 116.261719 76.726562 116.769531 76.996094 C 117.277344 77.265625 117.796875 77.511719 118.328125 77.734375 C 118.859375 77.953125 119.402344 78.148438 119.953125 78.3125 C 120.5 78.480469 121.058594 78.621094 121.625 78.734375 C 122.1875 78.84375 122.757812 78.929688 123.328125 78.984375 C 123.902344 79.042969 124.476562 79.070312 125.050781 79.070312 C 125.628906 79.070312 126.203125 79.042969 126.773438 78.984375 C 127.347656 78.929688 127.914062 78.84375 128.480469 78.734375 C 129.042969 78.621094 129.601562 78.480469 130.152344 78.3125 C 130.703125 78.148438 131.246094 77.953125 131.777344 77.734375 C 132.308594 77.511719 132.828125 77.265625 133.335938 76.996094 C 133.84375 76.726562 134.335938 76.429688 134.8125 76.109375 C 135.292969 75.789062 135.753906 75.449219 136.199219 75.082031 C 136.644531 74.71875 137.070312 74.332031 137.476562 73.925781 C 137.882812 73.515625 138.269531 73.089844 138.632812 72.648438 C 139 72.203125 139.34375 71.738281 139.660156 71.261719 C 139.980469 70.78125 140.277344 70.289062 140.546875 69.78125 C 140.820312 69.273438 141.066406 68.753906 141.285156 68.222656 C 141.507812 67.691406 141.699219 67.152344 141.867188 66.601562 C 142.035156 66.050781 142.171875 65.492188 142.285156 64.925781 C 142.398438 64.363281 142.480469 63.792969 142.539062 63.222656 C 142.59375 62.648438 142.625 62.074219 142.625 61.5 L 142.625 52.664062 C 127.488281 52.332031 118.722656 50.246094 113.726562 47.664062 C 112.085938 49.742188 110.003906 51.179688 107.480469 51.980469 Z M 116.265625 39.535156 Z M 116.265625 39.535156 Z M 116.265625 39.535156 " fill-opacity="1" fill-rule="nonzero"/><path fill="#00bf63" d="M 160.195312 52.714844 L 147.015625 52.714844 L 147.015625 43.929688 L 155.800781 43.929688 L 155.800781 39.535156 C 155.800781 38.527344 155.75 37.523438 155.652344 36.523438 C 155.554688 35.519531 155.40625 34.527344 155.207031 33.539062 C 155.011719 32.550781 154.765625 31.574219 154.472656 30.613281 C 154.179688 29.648438 153.84375 28.703125 153.457031 27.773438 C 153.070312 26.84375 152.640625 25.933594 152.164062 25.046875 C 151.691406 24.160156 151.171875 23.296875 150.613281 22.460938 C 150.054688 21.621094 149.457031 20.816406 148.816406 20.035156 C 148.175781 19.257812 147.503906 18.511719 146.789062 17.800781 C 146.078125 17.089844 145.332031 16.414062 144.554688 15.777344 C 143.777344 15.136719 142.96875 14.539062 142.132812 13.980469 C 141.292969 13.421875 140.429688 12.902344 139.542969 12.429688 C 138.65625 11.953125 137.746094 11.523438 136.816406 11.140625 C 135.886719 10.753906 134.9375 10.417969 133.976562 10.125 C 133.011719 9.832031 132.035156 9.585938 131.050781 9.390625 C 130.0625 9.195312 129.066406 9.046875 128.066406 8.949219 C 127.0625 8.851562 126.058594 8.800781 125.050781 8.800781 C 124.046875 8.800781 123.039062 8.851562 122.039062 8.949219 C 121.035156 9.046875 120.042969 9.195312 119.054688 9.390625 C 118.066406 9.585938 117.09375 9.832031 116.128906 10.125 C 115.164062 10.417969 114.21875 10.753906 113.289062 11.140625 C 112.359375 11.523438 111.449219 11.953125 110.5625 12.429688 C 109.671875 12.902344 108.808594 13.421875 107.972656 13.980469 C 107.136719 14.539062 106.328125 15.136719 105.550781 15.777344 C 104.769531 16.414062 104.027344 17.089844 103.3125 17.800781 C 102.601562 18.511719 101.925781 19.257812 101.289062 20.035156 C 100.648438 20.816406 100.050781 21.621094 99.488281 22.457031 C 98.929688 23.296875 98.414062 24.160156 97.9375 25.046875 C 97.464844 25.933594 97.03125 26.84375 96.648438 27.773438 C 96.261719 28.703125 95.921875 29.648438 95.628906 30.613281 C 95.335938 31.574219 95.09375 32.550781 94.894531 33.539062 C 94.699219 34.527344 94.550781 35.519531 94.453125 36.523438 C 94.351562 37.523438 94.300781 38.527344 94.300781 39.535156 L 94.300781 43.929688 L 103.085938 43.929688 L 103.085938 52.714844 L 89.910156 52.714844 C 89.621094 52.714844 89.335938 52.6875 89.050781 52.628906 C 88.769531 52.574219 88.496094 52.488281 88.226562 52.378906 C 87.960938 52.269531 87.707031 52.132812 87.46875 51.972656 C 87.230469 51.8125 87.007812 51.632812 86.804688 51.425781 C 86.597656 51.222656 86.417969 51 86.257812 50.761719 C 86.097656 50.523438 85.960938 50.269531 85.851562 50.003906 C 85.742188 49.734375 85.65625 49.460938 85.601562 49.179688 C 85.542969 48.894531 85.515625 48.609375 85.515625 48.320312 L 85.515625 39.535156 C 85.515625 38.242188 85.578125 36.949219 85.707031 35.660156 C 85.832031 34.371094 86.023438 33.09375 86.277344 31.824219 C 86.527344 30.550781 86.84375 29.296875 87.21875 28.058594 C 87.59375 26.820312 88.03125 25.601562 88.527344 24.40625 C 89.019531 23.210938 89.574219 22.039062 90.183594 20.898438 C 90.796875 19.757812 91.460938 18.648438 92.179688 17.570312 C 92.898438 16.492188 93.667969 15.457031 94.492188 14.453125 C 95.3125 13.453125 96.179688 12.496094 97.097656 11.578125 C 98.011719 10.664062 98.96875 9.796875 99.972656 8.972656 C 100.972656 8.152344 102.011719 7.382812 103.085938 6.664062 C 104.164062 5.945312 105.273438 5.277344 106.414062 4.667969 C 107.558594 4.058594 108.726562 3.503906 109.921875 3.007812 C 111.117188 2.515625 112.335938 2.078125 113.574219 1.703125 C 114.8125 1.328125 116.070312 1.011719 117.339844 0.757812 C 118.609375 0.507812 119.886719 0.316406 121.175781 0.191406 C 122.464844 0.0625 123.757812 0 125.050781 0 C 126.347656 0 127.636719 0.0625 128.925781 0.191406 C 130.214844 0.316406 131.496094 0.507812 132.765625 0.757812 C 134.035156 1.011719 135.289062 1.328125 136.527344 1.703125 C 137.765625 2.078125 138.984375 2.515625 140.179688 3.007812 C 141.378906 3.503906 142.546875 4.058594 143.6875 4.667969 C 144.832031 5.277344 145.941406 5.945312 147.015625 6.664062 C 148.09375 7.382812 149.132812 8.152344 150.132812 8.972656 C 151.132812 9.796875 152.09375 10.664062 153.007812 11.578125 C 153.921875 12.496094 154.792969 13.453125 155.613281 14.453125 C 156.433594 15.457031 157.203125 16.492188 157.925781 17.570312 C 158.644531 18.648438 159.308594 19.757812 159.917969 20.898438 C 160.53125 22.039062 161.082031 23.210938 161.578125 24.40625 C 162.074219 25.601562 162.507812 26.820312 162.886719 28.058594 C 163.261719 29.296875 163.574219 30.550781 163.828125 31.824219 C 164.082031 33.09375 164.269531 34.371094 164.398438 35.660156 C 164.523438 36.949219 164.585938 38.242188 164.585938 39.535156 L 164.585938 48.320312 C 164.585938 48.609375 164.558594 48.894531 164.503906 49.179688 C 164.445312 49.460938 164.363281 49.734375 164.253906 50.003906 C 164.140625 50.269531 164.007812 50.523438 163.847656 50.761719 C 163.6875 51 163.503906 51.222656 163.300781 51.425781 C 163.097656 51.632812 162.875 51.8125 162.636719 51.972656 C 162.394531 52.132812 162.140625 52.269531 161.875 52.378906 C 161.609375 52.488281 161.335938 52.574219 161.050781 52.628906 C 160.769531 52.6875 160.484375 52.714844 160.195312 52.714844 Z M 160.195312 52.714844 " fill-opacity="1" fill-rule="nonzero"/><path fill="#00bf63" d="M 90.976562 107.492188 L 88.84375 98.96875 L 111.875 93.210938 L 111.875 79.070312 L 120.660156 79.070312 L 120.660156 96.640625 C 120.660156 97.132812 120.578125 97.609375 120.421875 98.070312 C 120.261719 98.535156 120.03125 98.957031 119.730469 99.34375 C 119.429688 99.730469 119.070312 100.058594 118.660156 100.324219 C 118.25 100.589844 117.808594 100.785156 117.332031 100.902344 Z M 90.976562 107.492188 " fill-opacity="1" fill-rule="nonzero"/><path fill="#00bf63" d="M 147.015625 118.605469 L 155.800781 118.605469 L 155.800781 162.535156 L 147.015625 162.535156 Z M 147.015625 118.605469 " fill-opacity="1" fill-rule="nonzero"/><path fill="#00bf63" d="M 173.371094 162.535156 L 164.585938 162.535156 L 164.585938 108.859375 L 132.769531 100.902344 C 132.296875 100.785156 131.851562 100.589844 131.441406 100.324219 C 131.03125 100.058594 130.675781 99.730469 130.375 99.34375 C 130.074219 98.957031 129.84375 98.535156 129.683594 98.070312 C 129.523438 97.609375 129.445312 97.132812 129.445312 96.640625 L 129.445312 79.070312 L 138.230469 79.070312 L 138.230469 93.210938 L 170.046875 101.167969 C 170.523438 101.285156 170.964844 101.480469 171.375 101.746094 C 171.785156 102.011719 172.140625 102.339844 172.441406 102.726562 C 172.746094 103.113281 172.976562 103.535156 173.132812 104 C 173.292969 104.460938 173.371094 104.9375 173.371094 105.429688 Z M 173.371094 162.535156 " fill-opacity="1" fill-rule="nonzero"/><path fill="#00bf63" d="M 103.085938 65.890625 L 98.695312 65.890625 C 97.828125 65.890625 96.972656 65.808594 96.125 65.640625 C 95.273438 65.46875 94.453125 65.21875 93.652344 64.890625 C 92.851562 64.558594 92.09375 64.152344 91.375 63.671875 C 90.652344 63.191406 89.988281 62.644531 89.375 62.03125 C 88.765625 61.421875 88.21875 60.753906 87.738281 60.035156 C 87.257812 59.316406 86.851562 58.554688 86.519531 57.757812 C 86.1875 56.957031 85.9375 56.132812 85.769531 55.285156 C 85.601562 54.4375 85.515625 53.578125 85.515625 52.714844 L 85.515625 48.320312 L 94.300781 48.320312 L 94.300781 52.714844 C 94.300781 53.003906 94.332031 53.289062 94.386719 53.570312 C 94.441406 53.855469 94.527344 54.128906 94.636719 54.394531 C 94.746094 54.660156 94.882812 54.914062 95.042969 55.15625 C 95.203125 55.394531 95.386719 55.617188 95.589844 55.820312 C 95.792969 56.023438 96.015625 56.207031 96.253906 56.367188 C 96.496094 56.527344 96.746094 56.660156 97.015625 56.773438 C 97.28125 56.882812 97.554688 56.964844 97.839844 57.023438 C 98.121094 57.078125 98.40625 57.105469 98.695312 57.105469 L 103.085938 57.105469 Z M 103.085938 65.890625 " fill-opacity="1" fill-rule="nonzero"/><path fill="#00bf63" d="M 151.410156 65.890625 L 147.015625 65.890625 L 147.015625 57.105469 L 151.410156 57.105469 C 151.699219 57.105469 151.984375 57.078125 152.265625 57.023438 C 152.546875 56.964844 152.824219 56.882812 153.089844 56.773438 C 153.355469 56.660156 153.609375 56.527344 153.847656 56.367188 C 154.089844 56.207031 154.3125 56.023438 154.515625 55.820312 C 154.71875 55.617188 154.902344 55.394531 155.0625 55.15625 C 155.222656 54.914062 155.355469 54.660156 155.46875 54.394531 C 155.578125 54.128906 155.660156 53.855469 155.71875 53.570312 C 155.773438 53.289062 155.800781 53.003906 155.800781 52.714844 L 155.800781 48.320312 L 164.585938 48.320312 L 164.585938 52.714844 C 164.585938 53.578125 164.503906 54.4375 164.335938 55.285156 C 164.164062 56.132812 163.914062 56.957031 163.585938 57.757812 C 163.253906 58.554688 162.847656 59.316406 162.367188 60.035156 C 161.886719 60.753906 161.339844 61.421875 160.726562 62.03125 C 160.117188 62.644531 159.449219 63.191406 158.730469 63.671875 C 158.011719 64.152344 157.25 64.558594 156.453125 64.890625 C 155.652344 65.21875 154.828125 65.46875 153.980469 65.640625 C 153.132812 65.808594 152.273438 65.890625 151.410156 65.890625 Z M 151.410156 65.890625 " fill-opacity="1" fill-rule="nonzero"/><path fill="#00bf63" d="M 125.050781 109.820312 C 123.839844 109.820312 122.804688 109.390625 121.945312 108.535156 L 113.160156 99.746094 L 119.371094 93.535156 L 125.050781 99.214844 L 130.730469 93.535156 L 136.941406 99.746094 L 128.15625 108.535156 C 127.300781 109.390625 126.265625 109.820312 125.050781 109.820312 Z M 125.050781 109.820312 " fill-opacity="1" fill-rule="nonzero"/><path fill="#00bf63" d="M 120.660156 105.429688 L 129.445312 105.429688 L 129.445312 162.535156 L 120.660156 162.535156 Z M 120.660156 105.429688 " fill-opacity="1" fill-rule="nonzero"/><path fill="#00bf63" d="M 230.480469 87.855469 C 229.617188 87.855469 228.757812 87.8125 227.898438 87.726562 C 227.039062 87.640625 226.1875 87.515625 225.339844 87.347656 C 224.492188 87.175781 223.65625 86.964844 222.832031 86.714844 C 222.007812 86.464844 221.195312 86.171875 220.398438 85.84375 C 219.601562 85.511719 218.820312 85.144531 218.058594 84.738281 C 217.300781 84.328125 216.558594 83.886719 215.84375 83.40625 C 215.125 82.925781 214.433594 82.414062 213.765625 81.867188 C 213.097656 81.316406 212.460938 80.738281 211.851562 80.128906 C 211.238281 79.519531 210.660156 78.878906 210.113281 78.214844 C 209.566406 77.546875 209.050781 76.855469 208.574219 76.136719 C 208.09375 75.417969 207.648438 74.679688 207.242188 73.917969 C 206.835938 73.15625 206.464844 72.378906 206.136719 71.582031 C 205.804688 70.785156 205.515625 69.972656 205.261719 69.148438 C 205.011719 68.320312 204.800781 67.484375 204.632812 66.640625 C 204.464844 65.792969 204.335938 64.941406 204.253906 64.082031 C 204.167969 63.222656 204.125 62.363281 204.121094 61.5 L 204.121094 48.320312 C 204.121094 48.03125 204.152344 47.746094 204.207031 47.464844 C 204.261719 47.179688 204.347656 46.90625 204.457031 46.640625 C 204.566406 46.375 204.703125 46.121094 204.863281 45.878906 C 205.023438 45.640625 205.207031 45.417969 205.410156 45.214844 C 205.613281 45.011719 205.835938 44.828125 206.074219 44.667969 C 206.316406 44.507812 206.566406 44.371094 206.835938 44.261719 C 207.101562 44.152344 207.375 44.070312 207.660156 44.011719 C 207.941406 43.957031 208.226562 43.929688 208.515625 43.929688 C 233.632812 43.929688 238.691406 39.363281 239.371094 38.578125 C 239.488281 38.050781 239.695312 37.558594 239.996094 37.109375 C 240.292969 36.660156 240.664062 36.277344 241.101562 35.960938 C 241.542969 35.644531 242.023438 35.421875 242.546875 35.285156 C 243.070312 35.148438 243.601562 35.109375 244.140625 35.167969 C 244.675781 35.226562 245.1875 35.378906 245.667969 35.628906 C 246.148438 35.875 246.570312 36.199219 246.929688 36.605469 C 247.292969 37.007812 247.570312 37.460938 247.761719 37.964844 C 247.953125 38.472656 248.050781 38.996094 248.050781 39.535156 C 248.023438 39.832031 248.027344 40.128906 248.066406 40.425781 C 248.105469 40.722656 248.175781 41.011719 248.277344 41.292969 C 248.378906 41.574219 248.511719 41.839844 248.671875 42.09375 C 248.832031 42.34375 249.019531 42.574219 249.234375 42.785156 C 249.445312 42.996094 249.679688 43.179688 249.933594 43.339844 C 250.1875 43.496094 250.453125 43.625 250.734375 43.722656 C 251.019531 43.824219 251.308594 43.890625 251.605469 43.925781 C 251.902344 43.957031 252.199219 43.960938 252.496094 43.929688 C 252.78125 43.933594 253.0625 43.96875 253.34375 44.03125 C 253.621094 44.089844 253.890625 44.179688 254.152344 44.292969 C 254.414062 44.402344 254.664062 44.542969 254.898438 44.703125 C 255.136719 44.863281 255.351562 45.046875 255.554688 45.25 C 255.753906 45.449219 255.933594 45.671875 256.089844 45.910156 C 256.25 46.144531 256.382812 46.398438 256.492188 46.660156 C 256.605469 46.921875 256.6875 47.195312 256.746094 47.472656 C 256.804688 47.753906 256.832031 48.035156 256.835938 48.320312 L 256.835938 61.5 C 256.835938 62.363281 256.792969 63.222656 256.707031 64.082031 C 256.621094 64.941406 256.496094 65.792969 256.324219 66.640625 C 256.15625 67.484375 255.945312 68.320312 255.695312 69.148438 C 255.445312 69.972656 255.152344 70.785156 254.824219 71.582031 C 254.492188 72.378906 254.125 73.15625 253.714844 73.917969 C 253.308594 74.679688 252.867188 75.417969 252.386719 76.136719 C 251.90625 76.855469 251.394531 77.546875 250.847656 78.214844 C 250.296875 78.878906 249.71875 79.519531 249.109375 80.128906 C 248.5 80.738281 247.859375 81.316406 247.191406 81.867188 C 246.527344 82.414062 245.835938 82.925781 245.117188 83.40625 C 244.398438 83.886719 243.660156 84.328125 242.898438 84.738281 C 242.136719 85.144531 241.359375 85.511719 240.5625 85.84375 C 239.765625 86.171875 238.953125 86.464844 238.128906 86.714844 C 237.300781 86.964844 236.464844 87.175781 235.621094 87.347656 C 234.773438 87.515625 233.921875 87.640625 233.0625 87.726562 C 232.203125 87.8125 231.34375 87.855469 230.480469 87.855469 Z M 212.910156 52.664062 L 212.910156 61.5 C 212.910156 62.074219 212.9375 62.648438 212.992188 63.222656 C 213.050781 63.792969 213.132812 64.363281 213.246094 64.925781 C 213.359375 65.492188 213.496094 66.050781 213.664062 66.601562 C 213.832031 67.152344 214.027344 67.691406 214.246094 68.222656 C 214.464844 68.753906 214.710938 69.273438 214.984375 69.78125 C 215.253906 70.289062 215.550781 70.78125 215.871094 71.261719 C 216.1875 71.738281 216.53125 72.203125 216.898438 72.648438 C 217.261719 73.089844 217.648438 73.515625 218.054688 73.925781 C 218.460938 74.332031 218.886719 74.71875 219.332031 75.082031 C 219.777344 75.449219 220.238281 75.789062 220.71875 76.109375 C 221.195312 76.429688 221.6875 76.726562 222.195312 76.996094 C 222.703125 77.265625 223.222656 77.511719 223.753906 77.734375 C 224.289062 77.953125 224.828125 78.148438 225.378906 78.3125 C 225.929688 78.480469 226.488281 78.621094 227.050781 78.734375 C 227.617188 78.84375 228.183594 78.929688 228.757812 78.984375 C 229.332031 79.042969 229.902344 79.070312 230.480469 79.070312 C 231.054688 79.070312 231.628906 79.042969 232.203125 78.984375 C 232.773438 78.929688 233.34375 78.84375 233.90625 78.734375 C 234.472656 78.621094 235.03125 78.480469 235.582031 78.3125 C 236.132812 78.148438 236.671875 77.953125 237.203125 77.734375 C 237.734375 77.511719 238.253906 77.265625 238.761719 76.996094 C 239.269531 76.726562 239.761719 76.429688 240.242188 76.109375 C 240.71875 75.789062 241.183594 75.449219 241.625 75.082031 C 242.070312 74.71875 242.496094 74.332031 242.90625 73.925781 C 243.3125 73.515625 243.699219 73.089844 244.0625 72.648438 C 244.425781 72.203125 244.769531 71.738281 245.089844 71.261719 C 245.410156 70.78125 245.703125 70.289062 245.976562 69.78125 C 246.246094 69.273438 246.492188 68.753906 246.714844 68.222656 C 246.933594 67.691406 247.128906 67.152344 247.292969 66.601562 C 247.460938 66.050781 247.601562 65.492188 247.714844 64.925781 C 247.824219 64.363281 247.910156 63.792969 247.964844 63.222656 C 248.023438 62.648438 248.050781 62.074219 248.050781 61.5 L 248.050781 51.980469 C 245.527344 51.179688 243.445312 49.742188 241.804688 47.664062 C 236.808594 50.246094 228.042969 52.332031 212.910156 52.664062 Z M 239.265625 39.535156 Z M 239.265625 39.535156 Z M 239.265625 39.535156 " fill-opacity="1" fill-rule="nonzero"/><path fill="#00bf63" d="M 239.265625 96.640625 L 239.265625 87.855469 C 257.449219 87.855469 266.230469 81.300781 269.375 78.191406 C 264.632812 65.734375 261.917969 52.847656 261.230469 39.535156 C 261.230469 38.527344 261.179688 37.523438 261.082031 36.519531 C 260.984375 35.519531 260.835938 34.523438 260.636719 33.535156 C 260.441406 32.546875 260.199219 31.574219 259.90625 30.609375 C 259.613281 29.644531 259.273438 28.699219 258.890625 27.769531 C 258.503906 26.835938 258.074219 25.929688 257.597656 25.039062 C 257.125 24.152344 256.605469 23.289062 256.046875 22.453125 C 255.488281 21.613281 254.886719 20.804688 254.25 20.027344 C 253.609375 19.25 252.933594 18.503906 252.222656 17.792969 C 251.511719 17.078125 250.765625 16.40625 249.988281 15.765625 C 249.207031 15.125 248.402344 14.527344 247.5625 13.96875 C 246.726562 13.410156 245.863281 12.890625 244.976562 12.417969 C 244.085938 11.941406 243.175781 11.511719 242.246094 11.125 C 241.316406 10.742188 240.371094 10.402344 239.40625 10.109375 C 238.441406 9.816406 237.464844 9.574219 236.480469 9.375 C 235.492188 9.179688 234.496094 9.03125 233.492188 8.933594 C 232.492188 8.835938 231.488281 8.785156 230.480469 8.785156 C 229.472656 8.785156 228.46875 8.835938 227.464844 8.933594 C 226.464844 9.03125 225.46875 9.179688 224.480469 9.375 C 223.492188 9.574219 222.515625 9.816406 221.554688 10.109375 C 220.589844 10.402344 219.644531 10.742188 218.710938 11.125 C 217.78125 11.511719 216.871094 11.941406 215.984375 12.417969 C 215.097656 12.890625 214.234375 13.410156 213.394531 13.96875 C 212.558594 14.527344 211.75 15.125 210.972656 15.765625 C 210.195312 16.40625 209.449219 17.078125 208.734375 17.792969 C 208.023438 18.503906 207.347656 19.25 206.710938 20.027344 C 206.070312 20.804688 205.472656 21.613281 204.914062 22.453125 C 204.351562 23.289062 203.835938 24.152344 203.359375 25.039062 C 202.886719 25.929688 202.457031 26.835938 202.070312 27.769531 C 201.683594 28.699219 201.347656 29.644531 201.054688 30.609375 C 200.761719 31.574219 200.515625 32.546875 200.320312 33.535156 C 200.125 34.523438 199.976562 35.519531 199.878906 36.519531 C 199.777344 37.523438 199.730469 38.527344 199.730469 39.535156 C 199.042969 52.847656 196.324219 65.734375 191.582031 78.191406 C 194.699219 81.265625 203.480469 87.855469 221.695312 87.855469 L 221.695312 96.640625 C 193.3125 96.640625 183.308594 82.144531 182.898438 81.507812 C 182.492188 80.910156 182.253906 80.25 182.175781 79.527344 C 182.097656 78.808594 182.191406 78.113281 182.457031 77.441406 C 187.257812 65.246094 190.085938 52.613281 190.945312 39.535156 C 190.945312 38.242188 191.007812 36.949219 191.132812 35.660156 C 191.261719 34.371094 191.453125 33.09375 191.703125 31.824219 C 191.957031 30.550781 192.269531 29.296875 192.648438 28.058594 C 193.023438 26.820312 193.457031 25.601562 193.953125 24.40625 C 194.449219 23.210938 195.003906 22.039062 195.613281 20.898438 C 196.222656 19.757812 196.886719 18.648438 197.605469 17.570312 C 198.328125 16.492188 199.097656 15.457031 199.917969 14.453125 C 200.738281 13.453125 201.609375 12.496094 202.523438 11.578125 C 203.441406 10.664062 204.398438 9.796875 205.398438 8.972656 C 206.398438 8.152344 207.4375 7.382812 208.515625 6.664062 C 209.589844 5.945312 210.699219 5.277344 211.84375 4.667969 C 212.984375 4.058594 214.152344 3.503906 215.351562 3.007812 C 216.546875 2.515625 217.765625 2.078125 219.003906 1.703125 C 220.242188 1.328125 221.496094 1.011719 222.765625 0.757812 C 224.035156 0.507812 225.316406 0.316406 226.605469 0.191406 C 227.894531 0.0625 229.183594 0 230.480469 0 C 231.773438 0 233.066406 0.0625 234.355469 0.191406 C 235.644531 0.316406 236.921875 0.507812 238.191406 0.757812 C 239.460938 1.011719 240.71875 1.328125 241.957031 1.703125 C 243.195312 2.078125 244.414062 2.515625 245.609375 3.007812 C 246.804688 3.503906 247.976562 4.058594 249.117188 4.667969 C 250.257812 5.277344 251.367188 5.945312 252.445312 6.664062 C 253.519531 7.382812 254.558594 8.152344 255.5625 8.972656 C 256.5625 9.796875 257.519531 10.664062 258.433594 11.578125 C 259.351562 12.496094 260.21875 13.453125 261.039062 14.453125 C 261.863281 15.457031 262.632812 16.492188 263.351562 17.570312 C 264.070312 18.648438 264.738281 19.757812 265.347656 20.898438 C 265.957031 22.039062 266.511719 23.210938 267.003906 24.40625 C 267.5 25.601562 267.9375 26.820312 268.3125 28.058594 C 268.6875 29.296875 269.003906 30.550781 269.253906 31.824219 C 269.507812 33.09375 269.699219 34.371094 269.824219 35.660156 C 269.953125 36.949219 270.015625 38.242188 270.015625 39.535156 C 270.867188 52.609375 273.695312 65.246094 278.488281 77.441406 C 278.753906 78.113281 278.847656 78.808594 278.773438 79.527344 C 278.695312 80.25 278.453125 80.910156 278.050781 81.507812 C 277.648438 82.144531 267.648438 96.640625 239.265625 96.640625 Z M 239.265625 96.640625 " fill-opacity="1" fill-rule="nonzero"/><path fill="#00bf63" d="M 230.480469 114.214844 C 213.105469 114.214844 208.515625 102.71875 208.515625 96.640625 L 212.910156 96.640625 L 217.300781 96.582031 C 217.34375 98.058594 218.179688 105.429688 230.480469 105.429688 C 243.507812 105.429688 243.65625 97.003906 243.65625 96.640625 L 252.445312 96.640625 C 252.445312 102.71875 247.851562 114.214844 230.480469 114.214844 Z M 230.480469 114.214844 " fill-opacity="1" fill-rule="nonzero"/><path fill="#00bf63" d="M 226.085938 109.820312 L 234.871094 109.820312 L 234.871094 127.390625 L 226.085938 127.390625 Z M 226.085938 109.820312 " fill-opacity="1" fill-rule="nonzero"/><path fill="#00bf63" d="M 261.230469 162.535156 L 252.445312 162.535156 C 252.535156 158.269531 253.339844 154.148438 254.863281 150.164062 C 256.085938 147.082031 256.742188 143.882812 256.835938 140.570312 C 257.132812 137.445312 256.664062 134.4375 255.425781 131.550781 C 255.152344 131.460938 254.894531 131.34375 254.644531 131.199219 C 254.394531 131.054688 254.164062 130.890625 253.945312 130.699219 C 253.730469 130.511719 253.535156 130.300781 253.359375 130.074219 C 253.183594 129.847656 253.03125 129.605469 252.902344 129.347656 C 252.773438 129.089844 252.671875 128.824219 252.597656 128.546875 C 252.523438 128.265625 252.472656 127.984375 252.453125 127.699219 C 252.433594 127.410156 252.441406 127.125 252.476562 126.839844 C 252.511719 126.554688 252.578125 126.277344 252.667969 126.003906 L 257.0625 112.824219 L 265.40625 115.601562 L 262.039062 125.707031 C 263.453125 127.910156 264.46875 130.289062 265.082031 132.835938 C 265.699219 135.382812 265.878906 137.960938 265.621094 140.570312 C 265.53125 144.835938 264.726562 148.957031 263.203125 152.941406 C 261.980469 156.023438 261.324219 159.222656 261.230469 162.535156 Z M 256.835938 131.785156 Z M 256.835938 131.785156 Z M 256.835938 131.785156 Z M 256.835938 131.785156 " fill-opacity="1" fill-rule="nonzero"/><path fill="#00bf63" d="M 274.40625 166.925781 L 186.550781 166.925781 C 186.261719 166.925781 185.976562 166.898438 185.695312 166.84375 C 185.410156 166.785156 185.136719 166.703125 184.871094 166.59375 C 184.605469 166.484375 184.351562 166.347656 184.109375 166.1875 C 183.871094 166.027344 183.648438 165.84375 183.445312 165.640625 C 183.242188 165.4375 183.058594 165.214844 182.898438 164.976562 C 182.738281 164.734375 182.601562 164.480469 182.492188 164.214844 C 182.382812 163.949219 182.300781 163.675781 182.242188 163.390625 C 182.1875 163.109375 182.160156 162.824219 182.160156 162.535156 L 182.160156 105.429688 C 182.160156 104.9375 182.238281 104.460938 182.398438 104 C 182.558594 103.535156 182.789062 103.113281 183.089844 102.726562 C 183.390625 102.339844 183.746094 102.011719 184.15625 101.746094 C 184.566406 101.480469 185.007812 101.285156 185.484375 101.167969 L 217.300781 93.210938 L 217.300781 79.070312 L 226.085938 79.070312 L 226.085938 96.640625 C 226.085938 97.132812 226.007812 97.609375 225.847656 98.070312 C 225.6875 98.535156 225.457031 98.957031 225.15625 99.34375 C 224.855469 99.730469 224.5 100.058594 224.089844 100.324219 C 223.679688 100.589844 223.238281 100.785156 222.761719 100.902344 L 190.945312 108.859375 L 190.945312 158.140625 L 270.015625 158.140625 L 270.015625 108.859375 L 238.199219 100.902344 C 237.722656 100.785156 237.28125 100.589844 236.871094 100.324219 C 236.460938 100.058594 236.105469 99.730469 235.800781 99.34375 C 235.5 98.957031 235.269531 98.535156 235.113281 98.070312 C 234.953125 97.609375 234.871094 97.132812 234.871094 96.640625 L 234.871094 79.070312 L 243.65625 79.070312 L 243.65625 93.210938 L 275.476562 101.167969 C 275.949219 101.285156 276.394531 101.480469 276.804688 101.746094 C 277.214844 102.011719 277.570312 102.339844 277.871094 102.726562 C 278.171875 103.113281 278.402344 103.535156 278.5625 104 C 278.722656 104.460938 278.800781 104.9375 278.800781 105.429688 L 278.800781 162.535156 C 278.800781 162.824219 278.773438 163.109375 278.714844 163.390625 C 278.660156 163.675781 278.578125 163.949219 278.464844 164.214844 C 278.355469 164.480469 278.21875 164.734375 278.058594 164.976562 C 277.898438 165.214844 277.71875 165.4375 277.515625 165.640625 C 277.308594 165.84375 277.089844 166.027344 276.847656 166.1875 C 276.609375 166.347656 276.355469 166.484375 276.089844 166.59375 C 275.824219 166.703125 275.546875 166.785156 275.265625 166.84375 C 274.980469 166.898438 274.695312 166.925781 274.40625 166.925781 Z M 274.40625 166.925781 " fill-opacity="1" fill-rule="nonzero"/><path fill="#00bf63" d="M 208.515625 162.535156 L 199.730469 162.535156 C 199.632812 159.222656 198.976562 156.023438 197.757812 152.941406 C 196.234375 148.957031 195.425781 144.835938 195.335938 140.570312 C 195.082031 137.960938 195.265625 135.382812 195.878906 132.835938 C 196.496094 130.285156 197.511719 127.910156 198.929688 125.707031 L 195.5625 115.601562 L 203.90625 112.824219 L 208.300781 126.003906 C 208.390625 126.277344 208.453125 126.554688 208.492188 126.839844 C 208.527344 127.125 208.535156 127.410156 208.515625 127.699219 C 208.496094 127.984375 208.445312 128.265625 208.371094 128.546875 C 208.296875 128.824219 208.195312 129.089844 208.066406 129.347656 C 207.9375 129.605469 207.785156 129.847656 207.609375 130.074219 C 207.433594 130.300781 207.238281 130.511719 207.023438 130.699219 C 206.804688 130.890625 206.574219 131.054688 206.324219 131.199219 C 206.074219 131.34375 205.8125 131.460938 205.542969 131.550781 C 204.300781 134.4375 203.828125 137.445312 204.121094 140.570312 C 204.21875 143.882812 204.875 147.082031 206.09375 150.164062 C 207.617188 154.148438 208.425781 158.269531 208.515625 162.535156 Z M 204.121094 131.785156 Z M 204.121094 131.785156 Z M 204.121094 131.785156 Z M 204.121094 131.785156 " fill-opacity="1" fill-rule="nonzero"/><path fill="#00bf63" d="M 81.125 144.964844 L 19.625 144.964844 C 18.757812 144.964844 17.902344 144.878906 17.054688 144.710938 C 16.203125 144.542969 15.378906 144.292969 14.582031 143.960938 C 13.78125 143.628906 13.023438 143.222656 12.300781 142.742188 C 11.582031 142.261719 10.917969 141.714844 10.304688 141.101562 C 9.695312 140.492188 9.148438 139.824219 8.667969 139.105469 C 8.1875 138.386719 7.78125 137.628906 7.449219 136.828125 C 7.117188 136.027344 6.867188 135.203125 6.699219 134.355469 C 6.53125 133.507812 6.445312 132.648438 6.445312 131.785156 L 6.445312 87.855469 C 6.445312 86.992188 6.53125 86.132812 6.699219 85.285156 C 6.867188 84.4375 7.117188 83.613281 7.449219 82.8125 C 7.78125 82.015625 8.1875 81.253906 8.667969 80.535156 C 9.148438 79.816406 9.695312 79.148438 10.304688 78.539062 C 10.917969 77.925781 11.582031 77.378906 12.300781 76.898438 C 13.023438 76.417969 13.78125 76.011719 14.582031 75.679688 C 15.378906 75.351562 16.203125 75.101562 17.054688 74.929688 C 17.902344 74.761719 18.757812 74.679688 19.625 74.679688 L 81.125 74.679688 C 81.988281 74.679688 82.847656 74.761719 83.695312 74.929688 C 84.542969 75.101562 85.367188 75.351562 86.167969 75.679688 C 86.964844 76.011719 87.726562 76.417969 88.445312 76.898438 C 89.164062 77.378906 89.832031 77.925781 90.441406 78.539062 C 91.054688 79.148438 91.601562 79.816406 92.082031 80.535156 C 92.5625 81.253906 92.96875 82.015625 93.300781 82.8125 C 93.628906 83.613281 93.878906 84.4375 94.050781 85.285156 C 94.21875 86.132812 94.300781 86.992188 94.300781 87.855469 L 94.300781 131.785156 C 94.300781 132.648438 94.21875 133.507812 94.050781 134.355469 C 93.878906 135.203125 93.628906 136.027344 93.300781 136.828125 C 92.96875 137.628906 92.5625 138.386719 92.082031 139.105469 C 91.601562 139.824219 91.054688 140.492188 90.441406 141.101562 C 89.832031 141.714844 89.164062 142.261719 88.445312 142.742188 C 87.726562 143.222656 86.964844 143.628906 86.167969 143.960938 C 85.367188 144.292969 84.542969 144.542969 83.695312 144.710938 C 82.847656 144.878906 81.988281 144.964844 81.125 144.964844 Z M 19.625 83.464844 C 19.335938 83.464844 19.050781 83.492188 18.765625 83.546875 C 18.484375 83.605469 18.210938 83.6875 17.941406 83.796875 C 17.675781 83.910156 17.421875 84.042969 17.183594 84.203125 C 16.945312 84.363281 16.722656 84.546875 16.519531 84.75 C 16.3125 84.953125 16.132812 85.175781 15.972656 85.414062 C 15.8125 85.65625 15.675781 85.910156 15.566406 86.175781 C 15.457031 86.441406 15.371094 86.714844 15.316406 87 C 15.257812 87.28125 15.230469 87.566406 15.230469 87.855469 L 15.230469 131.785156 C 15.230469 132.074219 15.257812 132.359375 15.316406 132.640625 C 15.371094 132.925781 15.457031 133.199219 15.566406 133.464844 C 15.675781 133.730469 15.8125 133.984375 15.972656 134.226562 C 16.132812 134.464844 16.3125 134.6875 16.519531 134.890625 C 16.722656 135.09375 16.945312 135.277344 17.183594 135.4375 C 17.421875 135.597656 17.675781 135.734375 17.941406 135.84375 C 18.210938 135.953125 18.484375 136.035156 18.765625 136.09375 C 19.050781 136.148438 19.335938 136.175781 19.625 136.175781 L 81.125 136.175781 C 81.410156 136.175781 81.699219 136.148438 81.980469 136.09375 C 82.261719 136.035156 82.539062 135.953125 82.804688 135.84375 C 83.070312 135.734375 83.324219 135.597656 83.5625 135.4375 C 83.804688 135.277344 84.027344 135.09375 84.230469 134.890625 C 84.433594 134.6875 84.617188 134.464844 84.777344 134.226562 C 84.9375 133.984375 85.070312 133.730469 85.183594 133.464844 C 85.292969 133.199219 85.375 132.925781 85.433594 132.640625 C 85.488281 132.359375 85.515625 132.074219 85.515625 131.785156 L 85.515625 87.855469 C 85.515625 87.566406 85.488281 87.28125 85.433594 87 C 85.375 86.714844 85.292969 86.441406 85.183594 86.175781 C 85.070312 85.910156 84.9375 85.65625 84.777344 85.414062 C 84.617188 85.175781 84.433594 84.953125 84.230469 84.75 C 84.027344 84.546875 83.804688 84.363281 83.5625 84.203125 C 83.324219 84.042969 83.070312 83.910156 82.804688 83.796875 C 82.539062 83.6875 82.261719 83.605469 81.980469 83.546875 C 81.699219 83.492188 81.410156 83.464844 81.125 83.464844 Z M 19.625 83.464844 " fill-opacity="1" fill-rule="nonzero"/><path fill="#00bf63" d="M 28.722656 160.902344 L 37.511719 138.941406 L 45.671875 142.207031 L 36.882812 164.167969 Z M 28.722656 160.902344 " fill-opacity="1" fill-rule="nonzero"/><path fill="#00bf63" d="M 55.078125 142.199219 L 63.238281 138.9375 L 72.023438 160.898438 L 63.863281 164.164062 Z M 55.078125 142.199219 " fill-opacity="1" fill-rule="nonzero"/><g clip-path="url(#c788103e07)"><path fill="#00bf63" d="M 270.015625 281.140625 L 15.230469 281.140625 C 14.941406 281.140625 14.65625 281.113281 14.375 281.054688 C 14.089844 281 13.816406 280.917969 13.550781 280.804688 C 13.285156 280.695312 13.03125 280.5625 12.789062 280.402344 C 12.550781 280.242188 12.328125 280.058594 12.125 279.855469 C 11.921875 279.648438 11.738281 279.429688 11.578125 279.1875 C 11.417969 278.949219 11.28125 278.695312 11.171875 278.429688 C 11.0625 278.164062 10.980469 277.886719 10.921875 277.605469 C 10.867188 277.320312 10.839844 277.035156 10.839844 276.746094 L 10.839844 180.105469 L 19.625 180.105469 L 19.625 272.355469 L 265.621094 272.355469 L 265.621094 180.105469 L 274.40625 180.105469 L 274.40625 276.746094 C 274.40625 277.035156 274.378906 277.320312 274.324219 277.605469 C 274.265625 277.886719 274.183594 278.164062 274.074219 278.429688 C 273.964844 278.695312 273.828125 278.949219 273.667969 279.1875 C 273.507812 279.429688 273.324219 279.648438 273.121094 279.855469 C 272.917969 280.058594 272.695312 280.242188 272.457031 280.402344 C 272.214844 280.5625 271.960938 280.695312 271.695312 280.804688 C 271.429688 280.917969 271.15625 281 270.871094 281.054688 C 270.589844 281.113281 270.304688 281.140625 270.015625 281.140625 Z M 270.015625 281.140625 " fill-opacity="1" fill-rule="nonzero"/></g><path fill="#00bf63" d="M 208.515625 237.210938 L 76.730469 237.210938 C 76.441406 237.210938 76.15625 237.183594 75.875 237.128906 C 75.589844 237.070312 75.316406 236.988281 75.050781 236.878906 C 74.785156 236.769531 74.53125 236.632812 74.289062 236.472656 C 74.050781 236.3125 73.828125 236.128906 73.625 235.925781 C 73.421875 235.722656 73.238281 235.5 73.078125 235.261719 C 72.917969 235.019531 72.78125 234.765625 72.671875 234.5 C 72.5625 234.234375 72.480469 233.960938 72.421875 233.675781 C 72.367188 233.394531 72.339844 233.109375 72.339844 232.820312 L 72.339844 197.675781 C 72.339844 197.390625 72.367188 197.101562 72.421875 196.820312 C 72.480469 196.539062 72.5625 196.261719 72.671875 195.996094 C 72.78125 195.730469 72.917969 195.476562 73.078125 195.238281 C 73.238281 194.996094 73.421875 194.773438 73.625 194.570312 C 73.828125 194.367188 74.050781 194.183594 74.289062 194.023438 C 74.53125 193.863281 74.785156 193.730469 75.050781 193.617188 C 75.316406 193.507812 75.589844 193.425781 75.875 193.367188 C 76.15625 193.3125 76.441406 193.285156 76.730469 193.285156 L 208.515625 193.285156 C 208.804688 193.285156 209.089844 193.3125 209.371094 193.367188 C 209.65625 193.425781 209.929688 193.507812 210.195312 193.617188 C 210.464844 193.730469 210.714844 193.863281 210.957031 194.023438 C 211.195312 194.183594 211.417969 194.367188 211.621094 194.570312 C 211.824219 194.773438 212.007812 194.996094 212.167969 195.238281 C 212.328125 195.476562 212.464844 195.730469 212.574219 195.996094 C 212.683594 196.261719 212.769531 196.539062 212.824219 196.820312 C 212.878906 197.101562 212.910156 197.390625 212.910156 197.675781 L 212.910156 232.820312 C 212.910156 233.109375 212.878906 233.394531 212.824219 233.675781 C 212.769531 233.960938 212.683594 234.234375 212.574219 234.5 C 212.464844 234.765625 212.328125 235.019531 212.167969 235.261719 C 212.007812 235.5 211.824219 235.722656 211.621094 235.925781 C 211.417969 236.128906 211.195312 236.3125 210.957031 236.472656 C 210.714844 236.632812 210.464844 236.769531 210.195312 236.878906 C 209.929688 236.988281 209.65625 237.070312 209.371094 237.128906 C 209.089844 237.183594 208.804688 237.210938 208.515625 237.210938 Z M 81.125 228.425781 L 204.121094 228.425781 L 204.121094 202.070312 L 81.125 202.070312 Z M 81.125 228.425781 " fill-opacity="1" fill-rule="nonzero"/><path fill="#00bf63" d="M 89.910156 210.855469 L 98.695312 210.855469 L 98.695312 219.640625 L 89.910156 219.640625 Z M 89.910156 210.855469 " fill-opacity="1" fill-rule="nonzero"/><path fill="#00bf63" d="M 107.480469 210.855469 L 195.335938 210.855469 L 195.335938 219.640625 L 107.480469 219.640625 Z M 107.480469 210.855469 " fill-opacity="1" fill-rule="nonzero"/><path fill="#00bf63" d="M 45.980469 105.429688 L 54.765625 105.429688 L 54.765625 114.214844 L 45.980469 114.214844 Z M 45.980469 105.429688 " fill-opacity="1" fill-rule="nonzero"/></svg>