<svg xmlns="http://www.w3.org/2000/svg" xmlns:xlink="http://www.w3.org/1999/xlink" width="377" zoomAndPan="magnify" viewBox="0 0 282.96 283.499996" height="377" preserveAspectRatio="xMidYMid meet" version="1.0"><defs><clipPath id="bd48b45eaf"><path d="M 0.230469 0 L 282.691406 0 L 282.691406 283 L 0.230469 283 Z M 0.230469 0 " clip-rule="nonzero"/></clipPath></defs><g clip-path="url(#bd48b45eaf)"><path fill="#00bf63" d="M 279.171875 0 L 87.832031 0 C 85.621094 0 83.824219 1.796875 83.824219 4.007812 L 83.824219 112.398438 L 16.238281 112.398438 C 7.410156 112.398438 0.230469 119.578125 0.230469 128.40625 L 0.230469 185.75 C 0.230469 192.3125 4.199219 197.960938 9.859375 200.429688 L 9.859375 209.554688 C 9.859375 215.546875 14.734375 220.421875 20.726562 220.421875 L 58.667969 220.421875 C 64.660156 220.421875 69.535156 215.546875 69.535156 209.554688 L 69.535156 201.757812 L 77.4375 201.757812 C 79.652344 201.757812 81.445312 199.964844 81.445312 197.75 L 81.445312 141.007812 L 103.199219 141.007812 C 110.0625 141.007812 116 138.546875 120.851562 133.695312 L 123.757812 130.789062 L 279.171875 130.789062 C 281.386719 130.789062 283.183594 128.996094 283.183594 126.78125 L 283.183594 4.007812 C 283.183594 1.796875 281.386719 0 279.171875 0 Z M 61.515625 209.554688 C 61.515625 211.125 60.238281 212.402344 58.667969 212.402344 L 20.726562 212.402344 C 19.15625 212.402344 17.878906 211.125 17.878906 209.554688 L 17.878906 201.757812 L 24.828125 201.757812 C 27.042969 201.757812 28.835938 199.964844 28.835938 197.75 L 28.835938 180.335938 L 58.667969 180.335938 C 60.238281 180.335938 61.515625 181.613281 61.515625 183.183594 Z M 115.183594 128.023438 C 111.84375 131.363281 107.921875 132.988281 103.199219 132.988281 L 77.4375 132.988281 C 75.222656 132.988281 73.429688 134.78125 73.429688 136.996094 L 73.429688 193.742188 L 69.535156 193.742188 L 69.535156 183.183594 C 69.535156 177.191406 64.660156 172.316406 58.667969 172.316406 L 28.835938 172.316406 L 28.835938 136.996094 C 28.835938 134.78125 27.042969 132.988281 24.828125 132.988281 C 22.613281 132.988281 20.816406 134.78125 20.816406 136.996094 L 20.816406 193.742188 L 16.238281 193.742188 C 11.832031 193.742188 8.25 190.15625 8.25 185.75 L 8.25 128.40625 C 8.25 124 11.832031 120.417969 16.238281 120.417969 L 99.011719 120.417969 C 102.9375 120.417969 106.480469 118.949219 109.253906 116.175781 L 125.601562 99.828125 C 128.050781 97.378906 132.035156 97.378906 134.488281 99.828125 C 134.488281 99.832031 134.492188 99.832031 134.492188 99.832031 C 136.9375 102.28125 136.9375 106.269531 134.488281 108.71875 Z M 275.164062 122.773438 L 131.773438 122.773438 L 140.160156 114.386719 C 144.75 109.796875 145.558594 102.832031 142.585938 97.402344 L 167.738281 72.25 C 169.304688 70.683594 169.304688 68.144531 167.738281 66.582031 C 166.171875 65.015625 163.632812 65.015625 162.066406 66.582031 L 136.917969 91.730469 C 131.488281 88.761719 124.523438 89.566406 119.929688 94.160156 L 103.585938 110.503906 C 102.292969 111.796875 100.839844 112.398438 99.011719 112.398438 L 91.84375 112.398438 L 91.84375 8.019531 L 275.164062 8.019531 Z M 51.132812 105.453125 C 65.28125 105.453125 76.789062 93.945312 76.789062 79.796875 C 76.789062 65.648438 65.28125 54.140625 51.132812 54.140625 C 36.984375 54.140625 25.476562 65.648438 25.476562 79.796875 C 25.476562 93.941406 36.984375 105.453125 51.132812 105.453125 Z M 51.132812 62.160156 C 60.859375 62.160156 68.769531 70.070312 68.769531 79.796875 C 68.769531 89.519531 60.859375 97.433594 51.132812 97.433594 C 41.40625 97.433594 33.496094 89.519531 33.496094 79.796875 C 33.496094 70.070312 41.40625 62.160156 51.132812 62.160156 Z M 259.050781 182.789062 C 259.050781 169.144531 247.945312 158.042969 234.300781 158.042969 C 220.652344 158.042969 209.550781 169.144531 209.550781 182.789062 C 209.550781 196.4375 220.652344 207.539062 234.300781 207.539062 C 247.945312 207.539062 259.050781 196.4375 259.050781 182.789062 Z M 217.566406 182.789062 C 217.566406 173.566406 225.074219 166.0625 234.300781 166.0625 C 243.527344 166.0625 251.03125 173.566406 251.03125 182.789062 C 251.03125 192.015625 243.523438 199.519531 234.300781 199.519531 C 225.074219 199.519531 217.566406 192.015625 217.566406 182.789062 Z M 234.300781 211.472656 C 207.34375 211.472656 185.414062 233.402344 185.414062 260.355469 C 185.414062 265.636719 188.300781 272.996094 202.0625 278.058594 C 210.632812 281.214844 222.082031 282.953125 234.296875 282.953125 C 258.632812 282.953125 283.183594 275.964844 283.183594 260.355469 C 283.183594 233.402344 261.253906 211.472656 234.300781 211.472656 Z M 234.296875 274.933594 C 211.382812 274.933594 193.433594 268.53125 193.433594 260.355469 C 193.433594 237.824219 211.765625 219.492188 234.300781 219.492188 C 256.832031 219.492188 275.164062 237.824219 275.164062 260.355469 C 275.164062 268.53125 257.214844 274.933594 234.296875 274.933594 Z M 157.460938 182.789062 C 157.460938 169.144531 146.359375 158.042969 132.710938 158.042969 C 119.0625 158.042969 107.960938 169.144531 107.960938 182.789062 C 107.960938 196.4375 119.0625 207.539062 132.710938 207.539062 C 146.359375 207.539062 157.460938 196.4375 157.460938 182.789062 Z M 115.980469 182.789062 C 115.980469 173.566406 123.484375 166.0625 132.710938 166.0625 C 141.9375 166.0625 149.441406 173.566406 149.441406 182.789062 C 149.441406 192.015625 141.9375 199.519531 132.710938 199.519531 C 123.484375 199.519531 115.980469 192.015625 115.980469 182.789062 Z M 132.710938 211.472656 C 105.753906 211.472656 83.824219 233.402344 83.824219 260.355469 C 83.824219 265.636719 86.710938 272.996094 100.472656 278.058594 C 109.042969 281.214844 120.492188 282.953125 132.707031 282.953125 C 157.042969 282.953125 181.59375 275.964844 181.59375 260.355469 C 181.59375 233.402344 159.664062 211.472656 132.710938 211.472656 Z M 132.707031 274.933594 C 109.792969 274.933594 91.84375 268.53125 91.84375 260.355469 C 91.84375 237.824219 110.175781 219.492188 132.710938 219.492188 C 155.242188 219.492188 173.574219 237.824219 173.574219 260.355469 C 173.574219 268.53125 155.625 274.933594 132.707031 274.933594 Z M 114.082031 55.722656 C 114.082031 53.507812 115.875 51.714844 118.089844 51.714844 L 248.917969 51.714844 C 251.132812 51.714844 252.925781 53.507812 252.925781 55.722656 C 252.925781 57.9375 251.132812 59.734375 248.917969 59.734375 L 118.089844 59.734375 C 115.875 59.734375 114.082031 57.9375 114.082031 55.722656 Z M 252.925781 78.777344 C 252.925781 80.992188 251.132812 82.785156 248.917969 82.785156 L 183.503906 82.785156 C 181.289062 82.785156 179.492188 80.992188 179.492188 78.777344 C 179.492188 76.5625 181.289062 74.765625 183.503906 74.765625 L 248.917969 74.765625 C 251.132812 74.765625 252.925781 76.5625 252.925781 78.777344 Z M 114.082031 32.671875 C 114.082031 30.457031 115.875 28.660156 118.089844 28.660156 L 248.917969 28.660156 C 251.132812 28.660156 252.925781 30.457031 252.925781 32.671875 C 252.925781 34.886719 251.132812 36.679688 248.917969 36.679688 L 118.089844 36.679688 C 115.875 36.679688 114.082031 34.882812 114.082031 32.671875 Z M 114.082031 32.671875 " fill-opacity="1" fill-rule="nonzero"/></g></svg>