<svg xmlns="http://www.w3.org/2000/svg" xmlns:xlink="http://www.w3.org/1999/xlink" width="377" zoomAndPan="magnify" viewBox="0 0 282.96 283.499996" height="377" preserveAspectRatio="xMidYMid meet" version="1.0"><defs><clipPath id="b29ef614c1"><path d="M 101 68 L 282.691406 68 L 282.691406 249.15625 L 101 249.15625 Z M 101 68 " clip-rule="nonzero"/></clipPath><clipPath id="265f8717f6"><path d="M 0.230469 187 L 167 187 L 167 249.15625 L 0.230469 249.15625 Z M 0.230469 187 " clip-rule="nonzero"/></clipPath><clipPath id="b52d7f7b31"><path d="M 0.230469 134 L 118 134 L 118 197 L 0.230469 197 Z M 0.230469 134 " clip-rule="nonzero"/></clipPath><clipPath id="fe2f9be299"><path d="M 0.230469 81 L 152 81 L 152 144 L 0.230469 144 Z M 0.230469 81 " clip-rule="nonzero"/></clipPath><clipPath id="84556523f3"><path d="M 0.230469 28.296875 L 173 28.296875 L 173 91 L 0.230469 91 Z M 0.230469 28.296875 " clip-rule="nonzero"/></clipPath></defs><path fill="#00bf63" d="M 192.535156 231.621094 C 181.5 231.648438 170.601562 229.148438 160.679688 224.3125 C 150.304688 219.246094 141.273438 211.8125 134.308594 202.609375 C 133.375 201.371094 132.445312 200.054688 131.546875 198.695312 C 124.179688 187.480469 120.058594 174.449219 119.640625 161.039062 C 119.640625 160.3125 119.601562 159.539062 119.601562 158.6875 C 119.601562 118.410156 152.253906 85.757812 192.53125 85.757812 C 232.8125 85.757812 265.464844 118.410156 265.464844 158.6875 C 265.464844 198.964844 232.8125 231.617188 192.535156 231.621094 Z M 192.535156 94.597656 C 157.140625 94.597656 128.445312 123.292969 128.445312 158.6875 C 128.445312 159.429688 128.445312 160.097656 128.480469 160.734375 C 128.847656 172.519531 132.46875 183.976562 138.945312 193.835938 C 139.726562 195.027344 140.550781 196.1875 141.375 197.28125 C 147.503906 205.378906 155.453125 211.914062 164.578125 216.367188 C 173.289062 220.605469 182.851562 222.800781 192.535156 222.78125 C 227.933594 222.78125 256.628906 194.085938 256.628906 158.6875 C 256.628906 123.292969 227.933594 94.597656 192.535156 94.597656 Z M 192.535156 94.597656 " fill-opacity="1" fill-rule="nonzero"/><g clip-path="url(#b29ef614c1)"><path fill="#00bf63" d="M 192.535156 249.300781 C 178.824219 249.335938 165.285156 246.230469 152.960938 240.222656 C 140.070312 233.933594 128.847656 224.695312 120.195312 213.253906 C 119.03125 211.71875 117.875 210.078125 116.761719 208.394531 C 107.613281 194.457031 102.496094 178.265625 101.976562 161.605469 C 101.941406 160.707031 101.925781 159.738281 101.925781 158.6875 C 101.902344 108.667969 142.4375 68.097656 192.460938 68.078125 C 192.484375 68.078125 192.511719 68.078125 192.535156 68.078125 C 242.5 68.078125 283.148438 108.726562 283.148438 158.6875 C 283.148438 208.652344 242.5 249.300781 192.535156 249.300781 Z M 192.535156 76.917969 C 147.398438 76.894531 110.789062 113.472656 110.765625 158.613281 C 110.765625 158.636719 110.765625 158.664062 110.765625 158.6875 C 110.765625 159.628906 110.765625 160.484375 110.808594 161.300781 C 111.273438 176.339844 115.890625 190.953125 124.140625 203.53125 C 125.148438 205.050781 126.195312 206.53125 127.246094 207.949219 C 135.058594 218.273438 145.1875 226.613281 156.824219 232.292969 C 167.949219 237.707031 180.164062 240.5 192.535156 240.460938 C 237.628906 240.460938 274.308594 203.777344 274.308594 158.6875 C 274.308594 113.597656 237.628906 76.917969 192.535156 76.917969 Z M 192.535156 76.917969 " fill-opacity="1" fill-rule="nonzero"/></g><g clip-path="url(#265f8717f6)"><path fill="#00bf63" d="M 148.058594 249.300781 L 24.851562 249.300781 C 11.277344 249.285156 0.277344 238.285156 0.261719 224.714844 L 0.261719 212.007812 C 0.277344 198.433594 11.277344 187.433594 24.851562 187.417969 L 112.976562 187.417969 C 115.417969 187.417969 117.394531 189.398438 117.394531 191.839844 C 117.394531 194.28125 115.417969 196.257812 112.976562 196.257812 L 24.851562 196.257812 C 16.160156 196.273438 9.117188 203.316406 9.105469 212.007812 L 9.105469 224.714844 C 9.117188 233.40625 16.160156 240.449219 24.851562 240.460938 L 148.058594 240.460938 C 152.070312 240.476562 155.925781 238.914062 158.796875 236.113281 C 160.558594 234.421875 163.359375 234.484375 165.046875 236.246094 C 166.734375 238.011719 166.675781 240.808594 164.910156 242.5 C 160.386719 246.859375 154.34375 249.296875 148.058594 249.300781 Z M 148.058594 249.300781 " fill-opacity="1" fill-rule="nonzero"/></g><g clip-path="url(#b52d7f7b31)"><path fill="#00bf63" d="M 112.976562 196.257812 L 24.851562 196.257812 C 11.277344 196.246094 0.277344 185.246094 0.261719 171.671875 L 0.261719 158.964844 C 0.277344 145.394531 11.277344 134.394531 24.851562 134.378906 L 108.554688 134.378906 C 110.996094 134.378906 112.976562 136.359375 112.976562 138.796875 C 112.976562 141.238281 110.996094 143.21875 108.554688 143.21875 L 24.851562 143.21875 C 16.160156 143.230469 9.117188 150.273438 9.105469 158.964844 L 9.105469 171.671875 C 9.117188 180.363281 16.160156 187.40625 24.851562 187.417969 L 112.976562 187.417969 C 115.417969 187.417969 117.394531 189.398438 117.394531 191.839844 C 117.394531 194.28125 115.417969 196.257812 112.976562 196.257812 Z M 112.976562 196.257812 " fill-opacity="1" fill-rule="nonzero"/></g><g clip-path="url(#fe2f9be299)"><path fill="#00bf63" d="M 108.554688 143.21875 L 24.851562 143.21875 C 11.277344 143.203125 0.277344 132.203125 0.261719 118.632812 L 0.261719 105.925781 C 0.277344 92.351562 11.277344 81.351562 24.851562 81.335938 L 146.679688 81.335938 C 149.121094 81.335938 151.097656 83.316406 151.097656 85.757812 C 151.097656 88.199219 149.121094 90.175781 146.679688 90.175781 L 24.851562 90.175781 C 16.160156 90.191406 9.117188 97.234375 9.105469 105.925781 L 9.105469 118.632812 C 9.117188 127.324219 16.160156 134.367188 24.851562 134.378906 L 108.554688 134.378906 C 110.996094 134.378906 112.976562 136.359375 112.976562 138.796875 C 112.976562 141.238281 110.996094 143.21875 108.554688 143.21875 Z M 108.554688 143.21875 " fill-opacity="1" fill-rule="nonzero"/></g><g clip-path="url(#84556523f3)"><path fill="#00bf63" d="M 146.679688 90.175781 L 24.851562 90.175781 C 11.277344 90.164062 0.277344 79.164062 0.261719 65.589844 L 0.261719 52.882812 C 0.277344 39.3125 11.277344 28.3125 24.851562 28.296875 L 148.058594 28.296875 C 161.632812 28.3125 172.632812 39.3125 172.648438 52.882812 L 172.648438 65.589844 C 172.675781 70.625 171.144531 75.546875 168.269531 79.679688 C 166.902344 81.703125 164.15625 82.230469 162.132812 80.863281 C 160.109375 79.496094 159.582031 76.75 160.949219 74.726562 C 160.980469 74.679688 161.011719 74.636719 161.042969 74.589844 C 162.871094 71.949219 163.835938 68.804688 163.804688 65.589844 L 163.804688 52.882812 C 163.792969 44.191406 156.75 37.148438 148.058594 37.136719 L 24.851562 37.136719 C 16.160156 37.148438 9.117188 44.191406 9.105469 52.882812 L 9.105469 65.589844 C 9.117188 74.28125 16.160156 81.324219 24.851562 81.335938 L 146.679688 81.335938 C 149.121094 81.335938 151.097656 83.316406 151.097656 85.757812 C 151.097656 88.199219 149.121094 90.175781 146.679688 90.175781 Z M 146.679688 90.175781 " fill-opacity="1" fill-rule="nonzero"/></g><path fill="#00bf63" d="M 189.773438 151.507812 C 188.460938 151.507812 187.21875 150.925781 186.375 149.914062 L 164.277344 123.394531 C 162.714844 121.519531 162.96875 118.730469 164.84375 117.167969 C 166.722656 115.605469 169.507812 115.859375 171.070312 117.738281 L 193.171875 144.257812 C 194.734375 146.132812 194.480469 148.921875 192.605469 150.484375 C 191.808594 151.144531 190.808594 151.507812 189.773438 151.507812 Z M 189.773438 151.507812 " fill-opacity="1" fill-rule="nonzero"/><path fill="#00bf63" d="M 189.773438 208.96875 C 187.332031 208.96875 185.355469 206.988281 185.355469 204.546875 L 185.355469 147.085938 C 185.359375 146.078125 185.707031 145.105469 186.34375 144.324219 L 207.890625 117.804688 C 209.261719 115.78125 212.007812 115.253906 214.03125 116.621094 C 216.050781 117.992188 216.582031 120.738281 215.210938 122.761719 C 215.074219 122.960938 214.921875 123.152344 214.753906 123.328125 L 194.195312 148.65625 L 194.195312 204.546875 C 194.195312 206.988281 192.214844 208.96875 189.773438 208.96875 Z M 189.773438 208.96875 " fill-opacity="1" fill-rule="nonzero"/><path fill="#00bf63" d="M 211.875 169.1875 L 167.675781 169.1875 C 165.234375 169.1875 163.253906 167.207031 163.253906 164.765625 C 163.253906 162.324219 165.234375 160.347656 167.675781 160.347656 L 211.875 160.347656 C 214.316406 160.347656 216.296875 162.324219 216.296875 164.765625 C 216.296875 167.207031 214.316406 169.1875 211.875 169.1875 Z M 211.875 169.1875 " fill-opacity="1" fill-rule="nonzero"/><path fill="#00bf63" d="M 211.875 186.867188 L 167.675781 186.867188 C 165.234375 186.867188 163.253906 184.886719 163.253906 182.445312 C 163.253906 180.007812 165.234375 178.027344 167.675781 178.027344 L 211.875 178.027344 C 214.316406 178.027344 216.296875 180.007812 216.296875 182.445312 C 216.296875 184.886719 214.316406 186.867188 211.875 186.867188 Z M 211.875 186.867188 " fill-opacity="1" fill-rule="nonzero"/></svg>